<svg width="100" height="94" viewBox="0 0 100 94" fill="none" xmlns="http://www.w3.org/2000/svg">
<g clip-path="url(#clip0_74_5921)">
<rect width="100" height="75" rx="3" fill="white"/>
<rect x="0.5" y="0.5" width="99" height="8" fill="#223368"/>
<rect x="0.5" y="0.5" width="99" height="8" stroke="#292D32"/>
<line x1="12" y1="25.5" x2="56" y2="25.5" stroke="#292D32"/>
<line x1="58.5" y1="22" x2="58.5" y2="30" stroke="white"/>
<line x1="60" y1="25.5" x2="88" y2="25.5" stroke="#292D32"/>
<line x1="12" y1="41.5" x2="36" y2="41.5" stroke="#292D32"/>
<rect x="40.5" y="38.5" width="29" height="7" rx="0.5" stroke="#292D32"/>
<line x1="74" y1="41.5" x2="88" y2="41.5" stroke="#292D32"/>
<rect x="58.5" y="54.5" width="29" height="7" rx="0.5" fill="#223368" fill-opacity="0.2"/>
<rect x="58.5" y="54.5" width="29" height="7" rx="0.5" stroke="#292D32"/>
<line x1="61" y1="58" x2="85" y2="58" stroke="#292D32"/>
<rect x="12" y="54" width="30" height="8" rx="1" fill="#223368" fill-opacity="0.2"/>
<rect x="14.5" y="52.5" width="29" height="7" rx="0.5" fill="#223368"/>
<rect x="14.5" y="52.5" width="29" height="7" rx="0.5" stroke="#292D32"/>
<line x1="17" y1="56" x2="31" y2="56" stroke="white"/>
<path d="M47.1273 61.0838L45.4522 61.6638C44.9875 61.8238 44.6292 62.1938 44.4743 62.6738L43.9127 64.4038C43.4383 65.8938 41.405 65.8638 40.9596 64.3738L39.0715 58.0938C38.7036 56.8438 39.817 55.6938 41.008 56.0738L47.0982 58.0238C48.5409 58.4938 48.5603 60.5938 47.1273 61.0838Z" fill="white" stroke="#292D32" stroke-width="1.5" stroke-linecap="round" stroke-linejoin="round"/>
</g>
<rect x="0.5" y="0.5" width="99" height="74" rx="2.5" stroke="#292D32"/>
<path d="M9.54102 91H6.84783V82.2727H9.66033C10.5069 82.2727 11.2314 82.4474 11.8336 82.7969C12.4359 83.1435 12.8975 83.642 13.2186 84.2926C13.5396 84.9403 13.7001 85.7159 13.7001 86.6193C13.7001 87.5284 13.5382 88.3111 13.2143 88.9673C12.8904 89.6207 12.4189 90.1236 11.7995 90.4759C11.1802 90.8253 10.4274 91 9.54102 91ZM7.90465 90.0625H9.47283C10.1944 90.0625 10.7924 89.9233 11.2669 89.6449C11.7413 89.3665 12.095 88.9702 12.3279 88.456C12.5609 87.9418 12.6774 87.3295 12.6774 86.6193C12.6774 85.9148 12.5623 85.3082 12.3322 84.7997C12.1021 84.2884 11.7583 83.8963 11.301 83.6236C10.8436 83.348 10.274 83.2102 9.59215 83.2102H7.90465V90.0625ZM15.3365 91V84.4545H16.3081V85.4432H16.3762C16.4956 85.1193 16.7115 84.8565 17.024 84.6548C17.3365 84.4531 17.6887 84.3523 18.0808 84.3523C18.1547 84.3523 18.247 84.3537 18.3578 84.3565C18.4686 84.3594 18.5524 84.3636 18.6092 84.3693V85.392C18.5751 85.3835 18.497 85.3707 18.3748 85.3537C18.2555 85.3338 18.1291 85.3239 17.9956 85.3239C17.6774 85.3239 17.3933 85.3906 17.1433 85.5241C16.8961 85.6548 16.7001 85.8366 16.5552 86.0696C16.4132 86.2997 16.3422 86.5625 16.3422 86.858V91H15.3365ZM21.7275 91.1534C21.3127 91.1534 20.9363 91.0753 20.5982 90.919C20.2601 90.7599 19.9917 90.5312 19.7928 90.233C19.5939 89.9318 19.4945 89.5682 19.4945 89.142C19.4945 88.767 19.5684 88.4631 19.7161 88.2301C19.8638 87.9943 20.0613 87.8097 20.3084 87.6761C20.5556 87.5426 20.8283 87.4432 21.1266 87.3778C21.4277 87.3097 21.7303 87.2557 22.0343 87.2159C22.432 87.1648 22.7544 87.1264 23.0016 87.1009C23.2516 87.0724 23.4334 87.0256 23.5471 86.9602C23.6635 86.8949 23.7218 86.7812 23.7218 86.6193V86.5852C23.7218 86.1648 23.6067 85.8381 23.3766 85.6051C23.1493 85.3722 22.8042 85.2557 22.3411 85.2557C21.861 85.2557 21.4846 85.3608 21.2118 85.571C20.9391 85.7812 20.7473 86.0057 20.6365 86.2443L19.682 85.9034C19.8525 85.5057 20.0797 85.196 20.3638 84.9744C20.6507 84.75 20.9632 84.5937 21.3013 84.5057C21.6422 84.4148 21.9775 84.3693 22.307 84.3693C22.5172 84.3693 22.7587 84.3949 23.0314 84.446C23.307 84.4943 23.5726 84.5952 23.8283 84.7486C24.0868 84.902 24.3013 85.1335 24.4718 85.4432C24.6422 85.7528 24.7275 86.1676 24.7275 86.6875V91H23.7218V90.1136H23.6706C23.6025 90.2557 23.4888 90.4077 23.3297 90.5696C23.1706 90.7315 22.959 90.8693 22.6948 90.983C22.4306 91.0966 22.1081 91.1534 21.7275 91.1534ZM21.8809 90.25C22.2786 90.25 22.6138 90.1719 22.8865 90.0156C23.1621 89.8594 23.3695 89.6577 23.5087 89.4105C23.6507 89.1634 23.7218 88.9034 23.7218 88.6307V87.7102C23.6792 87.7614 23.5854 87.8082 23.4405 87.8509C23.2985 87.8906 23.1337 87.9261 22.9462 87.9574C22.7615 87.9858 22.5811 88.0114 22.405 88.0341C22.2317 88.054 22.0911 88.071 21.9831 88.0852C21.7218 88.1193 21.4775 88.1747 21.2502 88.2514C21.0257 88.3253 20.8439 88.4375 20.7047 88.5881C20.5684 88.7358 20.5002 88.9375 20.5002 89.1932C20.5002 89.5426 20.6294 89.8068 20.888 89.9858C21.1493 90.1619 21.4803 90.25 21.8809 90.25ZM29.2051 93.5909C28.7193 93.5909 28.3017 93.5284 27.9522 93.4034C27.6028 93.2812 27.3116 93.1193 27.0787 92.9176C26.8485 92.7188 26.6653 92.5057 26.5289 92.2784L27.3301 91.7159C27.421 91.8352 27.536 91.9716 27.6752 92.125C27.8145 92.2812 28.0048 92.4162 28.2463 92.5298C28.4906 92.6463 28.8102 92.7045 29.2051 92.7045C29.7335 92.7045 30.1696 92.5767 30.5133 92.321C30.8571 92.0653 31.0289 91.6648 31.0289 91.1193V89.7898H30.9437C30.8699 89.9091 30.7647 90.0568 30.6284 90.233C30.4949 90.4062 30.3017 90.5611 30.0488 90.6974C29.7988 90.831 29.4608 90.8977 29.0346 90.8977C28.5062 90.8977 28.0318 90.7727 27.6113 90.5227C27.1937 90.2727 26.8627 89.9091 26.6184 89.4318C26.377 88.9545 26.2562 88.375 26.2562 87.6932C26.2562 87.0227 26.3741 86.4389 26.6099 85.9418C26.8457 85.4418 27.1738 85.0554 27.5943 84.7827C28.0147 84.5071 28.5005 84.3693 29.0517 84.3693C29.4778 84.3693 29.8159 84.4403 30.0659 84.5824C30.3187 84.7216 30.5119 84.8807 30.6454 85.0597C30.7818 85.2358 30.8869 85.3807 30.9608 85.4943H31.063V84.4545H32.0346V91.1875C32.0346 91.75 31.9068 92.2074 31.6511 92.5597C31.3983 92.9148 31.0574 93.1747 30.6284 93.3395C30.2022 93.5071 29.7278 93.5909 29.2051 93.5909ZM29.171 89.9943C29.5744 89.9943 29.9153 89.902 30.1937 89.7173C30.4721 89.5327 30.6838 89.267 30.8287 88.9205C30.9735 88.5739 31.046 88.1591 31.046 87.6761C31.046 87.2045 30.975 86.7884 30.8329 86.4276C30.6909 86.0668 30.4806 85.7841 30.2022 85.5795C29.9238 85.375 29.5801 85.2727 29.171 85.2727C28.7449 85.2727 28.3897 85.3807 28.1056 85.5966C27.8244 85.8125 27.6127 86.1023 27.4707 86.4659C27.3315 86.8295 27.2619 87.233 27.2619 87.6761C27.2619 88.1307 27.3329 88.5327 27.475 88.8821C27.6199 89.2287 27.8329 89.5014 28.1142 89.7003C28.3983 89.8963 28.7505 89.9943 29.171 89.9943ZM40.0971 84.4545V85.3068H36.7051V84.4545H40.0971ZM37.6937 82.8864H38.6994V89.125C38.6994 89.4091 38.7406 89.6222 38.823 89.7642C38.9082 89.9034 39.0162 89.9972 39.1468 90.0455C39.2804 90.0909 39.421 90.1136 39.5687 90.1136C39.6795 90.1136 39.7704 90.108 39.8414 90.0966C39.9125 90.0824 39.9693 90.071 40.0119 90.0625L40.2164 90.9659C40.1483 90.9915 40.0531 91.017 39.9309 91.0426C39.8088 91.071 39.6539 91.0852 39.4664 91.0852C39.1824 91.0852 38.9039 91.0241 38.6312 90.902C38.3613 90.7798 38.1369 90.5938 37.9579 90.3438C37.7818 90.0938 37.6937 89.7784 37.6937 89.3977V82.8864ZM42.7562 87.0625V91H41.7505V82.2727H42.7562V85.4773H42.8414C42.9949 85.1392 43.225 84.8707 43.5318 84.6719C43.8414 84.4702 44.2534 84.3693 44.7676 84.3693C45.2136 84.3693 45.6042 84.4588 45.9395 84.6378C46.2747 84.8139 46.5346 85.0852 46.7193 85.4517C46.9068 85.8153 47.0005 86.2784 47.0005 86.8409V91H45.9949V86.9091C45.9949 86.3892 45.8599 85.9872 45.59 85.7031C45.323 85.4162 44.9522 85.2727 44.4778 85.2727C44.1483 85.2727 43.8528 85.3423 43.5914 85.4815C43.3329 85.6207 43.1284 85.8239 42.9778 86.0909C42.8301 86.358 42.7562 86.6818 42.7562 87.0625ZM51.5847 91.1364C50.954 91.1364 50.41 90.9972 49.9526 90.7188C49.498 90.4375 49.1472 90.0455 48.9 89.5426C48.6557 89.0369 48.5336 88.4489 48.5336 87.7784C48.5336 87.108 48.6557 86.517 48.9 86.0057C49.1472 85.4915 49.4909 85.0909 49.9313 84.804C50.3745 84.5142 50.8915 84.3693 51.4824 84.3693C51.8233 84.3693 52.16 84.4261 52.4924 84.5398C52.8248 84.6534 53.1273 84.8381 53.4 85.0938C53.6728 85.3466 53.8901 85.6818 54.052 86.0994C54.214 86.517 54.2949 87.0312 54.2949 87.642V88.0682H49.2495V87.1989H53.2722C53.2722 86.8295 53.1983 86.5 53.0506 86.2102C52.9057 85.9205 52.6983 85.6918 52.4284 85.5241C52.1614 85.3565 51.8461 85.2727 51.4824 85.2727C51.0819 85.2727 50.7353 85.3722 50.4426 85.571C50.1529 85.767 49.9299 86.0227 49.7736 86.3381C49.6174 86.6534 49.5392 86.9915 49.5392 87.3523V87.9318C49.5392 88.4261 49.6245 88.8452 49.7949 89.1889C49.9682 89.5298 50.2083 89.7898 50.5151 89.9688C50.8219 90.1449 51.1784 90.233 51.5847 90.233C51.8489 90.233 52.0875 90.196 52.3006 90.1222C52.5165 90.0455 52.7026 89.9318 52.8588 89.7812C53.0151 89.6278 53.1358 89.4375 53.2211 89.2102L54.1926 89.483C54.0904 89.8125 53.9185 90.1023 53.677 90.3523C53.4355 90.5994 53.1373 90.7926 52.7821 90.9318C52.427 91.0682 52.0279 91.1364 51.5847 91.1364ZM60.9213 91L58.535 82.2727H59.6088L61.4327 89.3807H61.5179L63.3759 82.2727H64.5691L66.427 89.3807H66.5123L68.3361 82.2727H69.41L67.0236 91H65.9327L64.0066 84.0455H63.9384L62.0123 91H60.9213ZM72.6401 91.1364C72.0492 91.1364 71.5307 90.9957 71.0847 90.7145C70.6415 90.4332 70.2949 90.0398 70.0449 89.5341C69.7978 89.0284 69.6742 88.4375 69.6742 87.7614C69.6742 87.0795 69.7978 86.4844 70.0449 85.9759C70.2949 85.4673 70.6415 85.0724 71.0847 84.7912C71.5307 84.5099 72.0492 84.3693 72.6401 84.3693C73.231 84.3693 73.748 84.5099 74.1912 84.7912C74.6373 85.0724 74.9838 85.4673 75.231 85.9759C75.481 86.4844 75.606 87.0795 75.606 87.7614C75.606 88.4375 75.481 89.0284 75.231 89.5341C74.9838 90.0398 74.6373 90.4332 74.1912 90.7145C73.748 90.9957 73.231 91.1364 72.6401 91.1364ZM72.6401 90.233C73.089 90.233 73.4583 90.1179 73.748 89.8878C74.0378 89.6577 74.2523 89.3551 74.3915 88.9801C74.5307 88.6051 74.6003 88.1989 74.6003 87.7614C74.6003 87.3239 74.5307 86.9162 74.3915 86.5384C74.2523 86.1605 74.0378 85.8551 73.748 85.6222C73.4583 85.3892 73.089 85.2727 72.6401 85.2727C72.1912 85.2727 71.8219 85.3892 71.5321 85.6222C71.2424 85.8551 71.0279 86.1605 70.8887 86.5384C70.7495 86.9162 70.6799 87.3239 70.6799 87.7614C70.6799 88.1989 70.7495 88.6051 70.8887 88.9801C71.0279 89.3551 71.2424 89.6577 71.5321 89.8878C71.8219 90.1179 72.1912 90.233 72.6401 90.233ZM77.1412 91V84.4545H78.1127V85.4432H78.1809C78.3002 85.1193 78.5162 84.8565 78.8287 84.6548C79.1412 84.4531 79.4934 84.3523 79.8855 84.3523C79.9593 84.3523 80.0517 84.3537 80.1625 84.3565C80.2733 84.3594 80.3571 84.3636 80.4139 84.3693V85.392C80.3798 85.3835 80.3017 85.3707 80.1795 85.3537C80.0602 85.3338 79.9338 85.3239 79.8002 85.3239C79.4821 85.3239 79.198 85.3906 78.948 85.5241C78.7008 85.6548 78.5048 85.8366 78.3599 86.0696C78.2179 86.2997 78.1468 86.5625 78.1468 86.858V91H77.1412ZM83.8784 91.1364C83.3329 91.1364 82.8514 90.9986 82.4338 90.723C82.0162 90.4446 81.6895 90.0526 81.4537 89.5469C81.2179 89.0384 81.1 88.4375 81.1 87.7443C81.1 87.0568 81.2179 86.4602 81.4537 85.9545C81.6895 85.4489 82.0176 85.0582 82.438 84.7827C82.8585 84.5071 83.3443 84.3693 83.8954 84.3693C84.3216 84.3693 84.6582 84.4403 84.9054 84.5824C85.1554 84.7216 85.3457 84.8807 85.4764 85.0597C85.6099 85.2358 85.7136 85.3807 85.7875 85.4943H85.8727V82.2727H86.8784V91H85.9068V89.9943H85.7875C85.7136 90.1136 85.6085 90.2642 85.4721 90.446C85.3358 90.625 85.1412 90.7855 84.8883 90.9276C84.6355 91.0668 84.2988 91.1364 83.8784 91.1364ZM84.0147 90.233C84.4181 90.233 84.7591 90.1278 85.0375 89.9176C85.3159 89.7045 85.5275 89.4105 85.6724 89.0355C85.8173 88.6577 85.8897 88.2216 85.8897 87.7273C85.8897 87.2386 85.8187 86.8111 85.6767 86.4446C85.5346 86.0753 85.3244 85.7884 85.046 85.5838C84.7676 85.3764 84.4238 85.2727 84.0147 85.2727C83.5886 85.2727 83.2335 85.3821 82.9494 85.6009C82.6681 85.8168 82.4565 86.1108 82.3145 86.483C82.1752 86.8523 82.1056 87.267 82.1056 87.7273C82.1056 88.1932 82.1767 88.6165 82.3187 88.9972C82.4636 89.375 82.6767 89.6761 82.9579 89.9006C83.242 90.1222 83.5943 90.233 84.0147 90.233ZM93.4963 85.9205L92.5929 86.1761C92.536 86.0256 92.4522 85.8793 92.3414 85.7372C92.2335 85.5923 92.0858 85.473 91.8983 85.3793C91.7108 85.2855 91.4707 85.2386 91.1781 85.2386C90.7775 85.2386 90.4437 85.331 90.1767 85.5156C89.9125 85.6974 89.7804 85.929 89.7804 86.2102C89.7804 86.4602 89.8713 86.6577 90.0531 86.8026C90.2349 86.9474 90.519 87.0682 90.9054 87.1648L91.877 87.4034C92.4622 87.5455 92.8983 87.7628 93.1852 88.0554C93.4721 88.3452 93.6156 88.7187 93.6156 89.1761C93.6156 89.5511 93.5076 89.8864 93.2917 90.1818C93.0787 90.4773 92.7804 90.7102 92.3968 90.8807C92.0133 91.0511 91.5673 91.1364 91.0588 91.1364C90.3912 91.1364 89.8386 90.9915 89.4011 90.7017C88.9636 90.4119 88.6866 89.9886 88.5701 89.4318L89.5247 89.1932C89.6156 89.5455 89.7875 89.8097 90.0403 89.9858C90.296 90.1619 90.6298 90.25 91.0417 90.25C91.5105 90.25 91.8826 90.1506 92.1582 89.9517C92.4366 89.75 92.5758 89.5085 92.5758 89.2273C92.5758 89 92.4963 88.8097 92.3372 88.6562C92.1781 88.5 91.9338 88.3835 91.6042 88.3068L90.5133 88.0511C89.9139 87.9091 89.4735 87.6889 89.1923 87.3906C88.9139 87.0895 88.7747 86.7131 88.7747 86.2614C88.7747 85.892 88.8784 85.5653 89.0858 85.2812C89.296 84.9972 89.5815 84.7741 89.9423 84.6122C90.3059 84.4503 90.7179 84.3693 91.1781 84.3693C91.8258 84.3693 92.3343 84.5114 92.7037 84.7955C93.0758 85.0795 93.34 85.4545 93.4963 85.9205Z" fill="#292D32"/>
<defs>
<clipPath id="clip0_74_5921">
<rect width="100" height="75" rx="3" fill="white"/>
</clipPath>
</defs>
</svg>
