<svg width="100" height="94" viewBox="0 0 100 94" fill="none" xmlns="http://www.w3.org/2000/svg">
<g clip-path="url(#clip0_74_5893)">
<rect width="100" height="75" rx="3" fill="white"/>
<rect x="0.5" y="0.5" width="99" height="8" fill="#223368"/>
<rect x="0.5" y="0.5" width="99" height="8" stroke="#292D32"/>
<path d="M25.5 57H34.5C42 57 45 54 45 46.5V37.5C45 30 42 27 34.5 27H25.5C18 27 15 30 15 37.5V46.5C15 54 18 57 25.5 57Z" stroke="#292D32" stroke-width="1.5" stroke-linecap="round" stroke-linejoin="round" stroke-dasharray="3 3"/>
<path d="M39 52H45C50 52 52 50 52 45V39C52 34 50 32 45 32H39C34 32 32 34 32 39V45C32 50 34 52 39 52Z" fill="white" stroke="#292D32" stroke-width="1.5" stroke-linecap="round" stroke-linejoin="round"/>
<path d="M49.7753 45.2202L47.4278 39.7377C46.6328 37.8777 45.1703 37.8027 44.1878 39.5727L42.7703 42.1302C42.0503 43.4277 40.7078 43.5402 39.7778 42.3777L39.6128 42.1677C38.6453 40.9527 37.2803 41.1027 36.5828 42.4902L35.2928 45.0777C34.3853 46.8777 35.6978 49.0002 37.7078 49.0002H47.2778C49.2278 49.0002 50.5403 47.0127 49.7753 45.2202Z" fill="#223368" stroke="#292D32" stroke-width="1.5" stroke-linecap="round" stroke-linejoin="round"/>
<path d="M38.7429 38.5C39.9856 38.5 40.9929 37.4926 40.9929 36.25C40.9929 35.0074 39.9856 34 38.7429 34C37.5003 34 36.4929 35.0074 36.4929 36.25C36.4929 37.4926 37.5003 38.5 38.7429 38.5Z" stroke="#292D32" stroke-width="1.5" stroke-linecap="round" stroke-linejoin="round"/>
<path d="M55.1273 52.0838L53.4522 52.6638C52.9875 52.8238 52.6292 53.1938 52.4743 53.6738L51.9127 55.4038C51.4383 56.8938 49.405 56.8638 48.9596 55.3738L47.0715 49.0938C46.7036 47.8438 47.817 46.6938 49.008 47.0738L55.0982 49.0238C56.5409 49.4938 56.5603 51.5938 55.1273 52.0838Z" fill="white" stroke="#292D32" stroke-width="1.5" stroke-linecap="round" stroke-linejoin="round"/>
<path d="M73 37H79C84 37 86 35 86 30V24C86 19 84 17 79 17H73C68 17 66 19 66 24V30C66 35 68 37 73 37Z" stroke="#292D32" stroke-width="1.5" stroke-linecap="round" stroke-linejoin="round"/>
<path d="M73 25C74.1046 25 75 24.1046 75 23C75 21.8954 74.1046 21 73 21C71.8954 21 71 21.8954 71 23C71 24.1046 71.8954 25 73 25Z" stroke="#292D32" stroke-width="1.5" stroke-linecap="round" stroke-linejoin="round"/>
<path d="M66.67 33.9501L71.6 30.6401C72.39 30.1101 73.53 30.1701 74.24 30.7801L74.57 31.0701C75.35 31.7401 76.61 31.7401 77.39 31.0701L81.55 27.5001C82.33 26.8301 83.59 26.8301 84.37 27.5001L86 28.9001" stroke="#292D32" stroke-width="1.5" stroke-linecap="round" stroke-linejoin="round"/>
<path d="M73 67H79C84 67 86 65 86 60V54C86 49 84 47 79 47H73C68 47 66 49 66 54V60C66 65 68 67 73 67Z" stroke="#292D32" stroke-width="1.5" stroke-linecap="round" stroke-linejoin="round"/>
<path d="M83.7753 60.2202L81.4278 54.7377C80.6328 52.8777 79.1703 52.8027 78.1878 54.5727L76.7703 57.1302C76.0503 58.4277 74.7078 58.5402 73.7778 57.3777L73.6128 57.1677C72.6453 55.9527 71.2803 56.1027 70.5828 57.4902L69.2928 60.0777C68.3853 61.8777 69.6978 64.0002 71.7078 64.0002H81.2778C83.2278 64.0002 84.5403 62.0127 83.7753 60.2202Z" stroke="#292D32" stroke-width="1.5" stroke-linecap="round" stroke-linejoin="round"/>
<path d="M72.7429 53.5C73.9856 53.5 74.9929 52.4926 74.9929 51.25C74.9929 50.0074 73.9856 49 72.7429 49C71.5003 49 70.4929 50.0074 70.4929 51.25C70.4929 52.4926 71.5003 53.5 72.7429 53.5Z" stroke="#292D32" stroke-width="1.5" stroke-linecap="round" stroke-linejoin="round"/>
</g>
<rect x="0.5" y="0.5" width="99" height="74" rx="2.5" stroke="#292D32"/>
<path d="M10.3496 91H7.65643V82.2727H10.4689C11.3155 82.2727 12.04 82.4474 12.6422 82.7969C13.2445 83.1435 13.7061 83.642 14.0272 84.2926C14.3482 84.9403 14.5087 85.7159 14.5087 86.6193C14.5087 87.5284 14.3468 88.3111 14.0229 88.9673C13.699 89.6207 13.2275 90.1236 12.6081 90.4759C11.9888 90.8253 11.236 91 10.3496 91ZM8.71325 90.0625H10.2814C11.003 90.0625 11.601 89.9233 12.0755 89.6449C12.5499 89.3665 12.9036 88.9702 13.1365 88.456C13.3695 87.9418 13.486 87.3295 13.486 86.6193C13.486 85.9148 13.3709 85.3082 13.1408 84.7997C12.9107 84.2884 12.5669 83.8963 12.1096 83.6236C11.6522 83.348 11.0826 83.2102 10.4007 83.2102H8.71325V90.0625ZM16.1451 91V84.4545H17.1167V85.4432H17.1848C17.3042 85.1193 17.5201 84.8565 17.8326 84.6548C18.1451 84.4531 18.4973 84.3523 18.8894 84.3523C18.9632 84.3523 19.0556 84.3537 19.1664 84.3565C19.2772 84.3594 19.361 84.3636 19.4178 84.3693V85.392C19.3837 85.3835 19.3056 85.3707 19.1834 85.3537C19.0641 85.3338 18.9377 85.3239 18.8042 85.3239C18.486 85.3239 18.2019 85.3906 17.9519 85.5241C17.7047 85.6548 17.5087 85.8366 17.3638 86.0696C17.2218 86.2997 17.1507 86.5625 17.1507 86.858V91H16.1451ZM22.536 91.1534C22.1213 91.1534 21.7449 91.0753 21.4068 90.919C21.0687 90.7599 20.8002 90.5312 20.6014 90.233C20.4025 89.9318 20.3031 89.5682 20.3031 89.142C20.3031 88.767 20.377 88.4631 20.5247 88.2301C20.6724 87.9943 20.8699 87.8097 21.117 87.6761C21.3642 87.5426 21.6369 87.4432 21.9352 87.3778C22.2363 87.3097 22.5389 87.2557 22.8429 87.2159C23.2406 87.1648 23.563 87.1264 23.8102 87.1009C24.0602 87.0724 24.242 87.0256 24.3556 86.9602C24.4721 86.8949 24.5304 86.7812 24.5304 86.6193V86.5852C24.5304 86.1648 24.4153 85.8381 24.1852 85.6051C23.9579 85.3722 23.6127 85.2557 23.1497 85.2557C22.6696 85.2557 22.2931 85.3608 22.0204 85.571C21.7477 85.7812 21.5559 86.0057 21.4451 86.2443L20.4906 85.9034C20.661 85.5057 20.8883 85.196 21.1724 84.9744C21.4593 84.75 21.7718 84.5937 22.1099 84.5057C22.4508 84.4148 22.786 84.3693 23.1156 84.3693C23.3258 84.3693 23.5673 84.3949 23.84 84.446C24.1156 84.4943 24.3812 84.5952 24.6369 84.7486C24.8954 84.902 25.1099 85.1335 25.2804 85.4432C25.4508 85.7528 25.536 86.1676 25.536 86.6875V91H24.5304V90.1136H24.4792C24.411 90.2557 24.2974 90.4077 24.1383 90.5696C23.9792 90.7315 23.7676 90.8693 23.5034 90.983C23.2392 91.0966 22.9167 91.1534 22.536 91.1534ZM22.6895 90.25C23.0872 90.25 23.4224 90.1719 23.6951 90.0156C23.9707 89.8594 24.1781 89.6577 24.3173 89.4105C24.4593 89.1634 24.5304 88.9034 24.5304 88.6307V87.7102C24.4877 87.7614 24.394 87.8082 24.2491 87.8509C24.1071 87.8906 23.9423 87.9261 23.7548 87.9574C23.5701 87.9858 23.3897 88.0114 23.2136 88.0341C23.0403 88.054 22.8997 88.071 22.7917 88.0852C22.5304 88.1193 22.286 88.1747 22.0588 88.2514C21.8343 88.3253 21.6525 88.4375 21.5133 88.5881C21.377 88.7358 21.3088 88.9375 21.3088 89.1932C21.3088 89.5426 21.438 89.8068 21.6966 89.9858C21.9579 90.1619 22.2889 90.25 22.6895 90.25ZM30.0137 93.5909C29.5279 93.5909 29.1103 93.5284 28.7608 93.4034C28.4114 93.2812 28.1202 93.1193 27.8873 92.9176C27.6571 92.7188 27.4739 92.5057 27.3375 92.2784L28.1387 91.7159C28.2296 91.8352 28.3446 91.9716 28.4838 92.125C28.623 92.2812 28.8134 92.4162 29.0549 92.5298C29.2992 92.6463 29.6188 92.7045 30.0137 92.7045C30.5421 92.7045 30.9782 92.5767 31.3219 92.321C31.6657 92.0653 31.8375 91.6648 31.8375 91.1193V89.7898H31.7523C31.6784 89.9091 31.5733 90.0568 31.437 90.233C31.3034 90.4062 31.1103 90.5611 30.8574 90.6974C30.6074 90.831 30.2694 90.8977 29.8432 90.8977C29.3148 90.8977 28.8404 90.7727 28.4199 90.5227C28.0023 90.2727 27.6713 89.9091 27.427 89.4318C27.1855 88.9545 27.0648 88.375 27.0648 87.6932C27.0648 87.0227 27.1827 86.4389 27.4185 85.9418C27.6543 85.4418 27.9824 85.0554 28.4029 84.7827C28.8233 84.5071 29.3091 84.3693 29.8603 84.3693C30.2864 84.3693 30.6245 84.4403 30.8745 84.5824C31.1273 84.7216 31.3205 84.8807 31.454 85.0597C31.5904 85.2358 31.6955 85.3807 31.7694 85.4943H31.8716V84.4545H32.8432V91.1875C32.8432 91.75 32.7154 92.2074 32.4597 92.5597C32.2069 92.9148 31.8659 93.1747 31.437 93.3395C31.0108 93.5071 30.5364 93.5909 30.0137 93.5909ZM29.9796 89.9943C30.383 89.9943 30.7239 89.902 31.0023 89.7173C31.2807 89.5327 31.4924 89.267 31.6373 88.9205C31.7821 88.5739 31.8546 88.1591 31.8546 87.6761C31.8546 87.2045 31.7836 86.7884 31.6415 86.4276C31.4995 86.0668 31.2892 85.7841 31.0108 85.5795C30.7324 85.375 30.3887 85.2727 29.9796 85.2727C29.5534 85.2727 29.1983 85.3807 28.9142 85.5966C28.633 85.8125 28.4213 86.1023 28.2793 86.4659C28.1401 86.8295 28.0705 87.233 28.0705 87.6761C28.0705 88.1307 28.1415 88.5327 28.2836 88.8821C28.4284 89.2287 28.6415 89.5014 28.9228 89.7003C29.2069 89.8963 29.5591 89.9943 29.9796 89.9943ZM38.4341 86.7898V87.7273H34.6159V86.7898H38.4341ZM42.1298 91.1534C41.715 91.1534 41.3386 91.0753 41.0005 90.919C40.6625 90.7599 40.394 90.5312 40.1951 90.233C39.9963 89.9318 39.8968 89.5682 39.8968 89.142C39.8968 88.767 39.9707 88.4631 40.1184 88.2301C40.2662 87.9943 40.4636 87.8097 40.7108 87.6761C40.9579 87.5426 41.2306 87.4432 41.5289 87.3778C41.8301 87.3097 42.1326 87.2557 42.4366 87.2159C42.8343 87.1648 43.1568 87.1264 43.4039 87.1009C43.6539 87.0724 43.8358 87.0256 43.9494 86.9602C44.0659 86.8949 44.1241 86.7812 44.1241 86.6193V86.5852C44.1241 86.1648 44.0091 85.8381 43.7789 85.6051C43.5517 85.3722 43.2065 85.2557 42.7434 85.2557C42.2633 85.2557 41.8869 85.3608 41.6142 85.571C41.3414 85.7812 41.1497 86.0057 41.0389 86.2443L40.0843 85.9034C40.2548 85.5057 40.4821 85.196 40.7662 84.9744C41.0531 84.75 41.3656 84.5937 41.7037 84.5057C42.0446 84.4148 42.3798 84.3693 42.7093 84.3693C42.9196 84.3693 43.161 84.3949 43.4338 84.446C43.7093 84.4943 43.975 84.5952 44.2306 84.7486C44.4892 84.902 44.7037 85.1335 44.8741 85.4432C45.0446 85.7528 45.1298 86.1676 45.1298 86.6875V91H44.1241V90.1136H44.073C44.0048 90.2557 43.8912 90.4077 43.7321 90.5696C43.573 90.7315 43.3613 90.8693 43.0971 90.983C42.8329 91.0966 42.5105 91.1534 42.1298 91.1534ZM42.2832 90.25C42.6809 90.25 43.0162 90.1719 43.2889 90.0156C43.5645 89.8594 43.7718 89.6577 43.911 89.4105C44.0531 89.1634 44.1241 88.9034 44.1241 88.6307V87.7102C44.0815 87.7614 43.9877 87.8082 43.8429 87.8509C43.7008 87.8906 43.536 87.9261 43.3485 87.9574C43.1639 87.9858 42.9835 88.0114 42.8074 88.0341C42.6341 88.054 42.4934 88.071 42.3855 88.0852C42.1241 88.1193 41.8798 88.1747 41.6525 88.2514C41.4281 88.3253 41.2463 88.4375 41.1071 88.5881C40.9707 88.7358 40.9025 88.9375 40.9025 89.1932C40.9025 89.5426 41.0318 89.8068 41.2903 89.9858C41.5517 90.1619 41.8826 90.25 42.2832 90.25ZM47.9711 87.0625V91H46.9654V84.4545H47.937V85.4773H48.0222C48.1756 85.1449 48.4086 84.8778 48.7211 84.6761C49.0336 84.4716 49.437 84.3693 49.9313 84.3693C50.3745 84.3693 50.7623 84.4602 51.0946 84.642C51.427 84.821 51.6855 85.0938 51.8702 85.4602C52.0549 85.8239 52.1472 86.2841 52.1472 86.8409V91H51.1415V86.9091C51.1415 86.3949 51.008 85.9943 50.7409 85.7074C50.4739 85.4176 50.1074 85.2727 49.6415 85.2727C49.3205 85.2727 49.0336 85.3423 48.7807 85.4815C48.5307 85.6207 48.3333 85.8239 48.1884 86.0909C48.0435 86.358 47.9711 86.6818 47.9711 87.0625ZM56.4565 91.1364C55.911 91.1364 55.4295 90.9986 55.0119 90.723C54.5943 90.4446 54.2676 90.0526 54.0318 89.5469C53.796 89.0384 53.6781 88.4375 53.6781 87.7443C53.6781 87.0568 53.796 86.4602 54.0318 85.9545C54.2676 85.4489 54.5957 85.0582 55.0162 84.7827C55.4366 84.5071 55.9224 84.3693 56.4735 84.3693C56.8997 84.3693 57.2363 84.4403 57.4835 84.5824C57.7335 84.7216 57.9238 84.8807 58.0545 85.0597C58.188 85.2358 58.2917 85.3807 58.3656 85.4943H58.4508V82.2727H59.4565V91H58.4849V89.9943H58.3656C58.2917 90.1136 58.1866 90.2642 58.0502 90.446C57.9139 90.625 57.7193 90.7855 57.4664 90.9276C57.2136 91.0668 56.877 91.1364 56.4565 91.1364ZM56.5929 90.233C56.9963 90.233 57.3372 90.1278 57.6156 89.9176C57.894 89.7045 58.1056 89.4105 58.2505 89.0355C58.3954 88.6577 58.4679 88.2216 58.4679 87.7273C58.4679 87.2386 58.3968 86.8111 58.2548 86.4446C58.1127 86.0753 57.9025 85.7884 57.6241 85.5838C57.3457 85.3764 57.002 85.2727 56.5929 85.2727C56.1667 85.2727 55.8116 85.3821 55.5275 85.6009C55.2463 85.8168 55.0346 86.1108 54.8926 86.483C54.7534 86.8523 54.6838 87.267 54.6838 87.7273C54.6838 88.1932 54.7548 88.6165 54.8968 88.9972C55.0417 89.375 55.2548 89.6761 55.536 89.9006C55.8201 90.1222 56.1724 90.233 56.5929 90.233ZM65.188 86.7898V87.7273H61.3699V86.7898H65.188ZM69.7871 91H67.0939V82.2727H69.9064C70.753 82.2727 71.4775 82.4474 72.0797 82.7969C72.682 83.1435 73.1436 83.642 73.4647 84.2926C73.7857 84.9403 73.9462 85.7159 73.9462 86.6193C73.9462 87.5284 73.7843 88.3111 73.4604 88.9673C73.1365 89.6207 72.665 90.1236 72.0456 90.4759C71.4263 90.8253 70.6735 91 69.7871 91ZM68.1507 90.0625H69.7189C70.4405 90.0625 71.0385 89.9233 71.513 89.6449C71.9874 89.3665 72.3411 88.9702 72.574 88.456C72.807 87.9418 72.9235 87.3295 72.9235 86.6193C72.9235 85.9148 72.8084 85.3082 72.5783 84.7997C72.3482 84.2884 72.0044 83.8963 71.5471 83.6236C71.0897 83.348 70.5201 83.2102 69.8382 83.2102H68.1507V90.0625ZM75.5826 91V84.4545H76.5542V85.4432H76.6223C76.7417 85.1193 76.9576 84.8565 77.2701 84.6548C77.5826 84.4531 77.9348 84.3523 78.3269 84.3523C78.4007 84.3523 78.4931 84.3537 78.6039 84.3565C78.7147 84.3594 78.7985 84.3636 78.8553 84.3693V85.392C78.8212 85.3835 78.7431 85.3707 78.6209 85.3537C78.5016 85.3338 78.3752 85.3239 78.2417 85.3239C77.9235 85.3239 77.6394 85.3906 77.3894 85.5241C77.1422 85.6548 76.9462 85.8366 76.8013 86.0696C76.6593 86.2997 76.5882 86.5625 76.5882 86.858V91H75.5826ZM82.5073 91.1364C81.9164 91.1364 81.3979 90.9957 80.9519 90.7145C80.5087 90.4332 80.1621 90.0398 79.9121 89.5341C79.665 89.0284 79.5414 88.4375 79.5414 87.7614C79.5414 87.0795 79.665 86.4844 79.9121 85.9759C80.1621 85.4673 80.5087 85.0724 80.9519 84.7912C81.3979 84.5099 81.9164 84.3693 82.5073 84.3693C83.0982 84.3693 83.6152 84.5099 84.0584 84.7912C84.5044 85.0724 84.851 85.4673 85.0982 85.9759C85.3482 86.4844 85.4732 87.0795 85.4732 87.7614C85.4732 88.4375 85.3482 89.0284 85.0982 89.5341C84.851 90.0398 84.5044 90.4332 84.0584 90.7145C83.6152 90.9957 83.0982 91.1364 82.5073 91.1364ZM82.5073 90.233C82.9561 90.233 83.3255 90.1179 83.6152 89.8878C83.905 89.6577 84.1195 89.3551 84.2587 88.9801C84.3979 88.6051 84.4675 88.1989 84.4675 87.7614C84.4675 87.3239 84.3979 86.9162 84.2587 86.5384C84.1195 86.1605 83.905 85.8551 83.6152 85.6222C83.3255 85.3892 82.9561 85.2727 82.5073 85.2727C82.0584 85.2727 81.6891 85.3892 81.3993 85.6222C81.1096 85.8551 80.8951 86.1605 80.7559 86.5384C80.6167 86.9162 80.5471 87.3239 80.5471 87.7614C80.5471 88.1989 80.6167 88.6051 80.7559 88.9801C80.8951 89.3551 81.1096 89.6577 81.3993 89.8878C81.6891 90.1179 82.0584 90.233 82.5073 90.233ZM87.0083 93.4545V84.4545H87.9799V85.4943H88.0993C88.1731 85.3807 88.2754 85.2358 88.4061 85.0597C88.5396 84.8807 88.7299 84.7216 88.9771 84.5824C89.2271 84.4403 89.5652 84.3693 89.9913 84.3693C90.5424 84.3693 91.0282 84.5071 91.4487 84.7827C91.8691 85.0582 92.1973 85.4489 92.4331 85.9545C92.6689 86.4602 92.7868 87.0568 92.7868 87.7443C92.7868 88.4375 92.6689 89.0384 92.4331 89.5469C92.1973 90.0526 91.8706 90.4446 91.4529 90.723C91.0353 90.9986 90.5538 91.1364 90.0083 91.1364C89.5879 91.1364 89.2512 91.0668 88.9984 90.9276C88.7456 90.7855 88.551 90.625 88.4146 90.446C88.2782 90.2642 88.1731 90.1136 88.0993 89.9943H88.014V93.4545H87.0083ZM87.997 87.7273C87.997 88.2216 88.0694 88.6577 88.2143 89.0355C88.3592 89.4105 88.5708 89.7045 88.8493 89.9176C89.1277 90.1278 89.4686 90.233 89.872 90.233C90.2924 90.233 90.6433 90.1222 90.9245 89.9006C91.2086 89.6761 91.4217 89.375 91.5637 88.9972C91.7086 88.6165 91.7811 88.1932 91.7811 87.7273C91.7811 87.267 91.71 86.8523 91.568 86.483C91.4288 86.1108 91.2172 85.8168 90.9331 85.6009C90.6518 85.3821 90.2981 85.2727 89.872 85.2727C89.4629 85.2727 89.1191 85.3764 88.8407 85.5838C88.5623 85.7884 88.3521 86.0753 88.21 86.4446C88.068 86.8111 87.997 87.2386 87.997 87.7273Z" fill="#292D32"/>
<defs>
<clipPath id="clip0_74_5893">
<rect width="100" height="75" rx="3" fill="white"/>
</clipPath>
</defs>
</svg>
