<svg width="100" height="94" viewBox="0 0 100 94" fill="none" xmlns="http://www.w3.org/2000/svg">
<g clip-path="url(#clip0_74_6019)">
<rect width="100" height="75" rx="3" fill="white"/>
<rect x="0.5" y="0.5" width="99" height="8" fill="#223368"/>
<rect x="0.5" y="0.5" width="99" height="8" stroke="#292D32"/>
<rect x="12.5" y="15.5" width="75" height="53" rx="2.5" stroke="#292D32"/>
<line x1="16" y1="24.5" x2="84" y2="24.5" stroke="#292D32"/>
<line x1="16" y1="32.5" x2="72" y2="32.5" stroke="#292D32"/>
<line x1="16" y1="40.5" x2="66" y2="40.5" stroke="#292D32"/>
<line x1="16" y1="48.5" x2="72" y2="48.5" stroke="#292D32"/>
<path d="M78.9475 36.0793L72.79 42.5968C72.5575 42.8443 72.3325 43.3318 72.2875 43.6693L72.01 46.0993C71.9125 46.9768 72.5425 47.5768 73.4125 47.4268L75.8275 47.0143C76.165 46.9543 76.6375 46.7068 76.87 46.4518L83.0275 39.9343C84.0925 38.8093 84.5725 37.5268 82.915 35.9593C81.265 34.4068 80.0125 34.9543 78.9475 36.0793Z" stroke="#292D32" stroke-miterlimit="10" stroke-linecap="round" stroke-linejoin="round"/>
<path d="M77.9199 37.166C78.2424 39.236 79.9224 40.8185 82.0074 41.0285" stroke="#292D32" stroke-miterlimit="10" stroke-linecap="round" stroke-linejoin="round"/>
</g>
<rect x="0.5" y="0.5" width="99" height="74" rx="2.5" stroke="#292D32"/>
<path d="M34.5978 91V82.2727H39.8649V83.2102H35.6547V86.1591H39.5922V87.0966H35.6547V90.0625H39.9331V91H34.5978ZM46.2697 85.9205L45.3663 86.1761C45.3095 86.0256 45.2257 85.8793 45.1149 85.7372C45.0069 85.5923 44.8592 85.473 44.6717 85.3793C44.4842 85.2855 44.2441 85.2386 43.9515 85.2386C43.551 85.2386 43.2172 85.331 42.9501 85.5156C42.6859 85.6974 42.5538 85.929 42.5538 86.2102C42.5538 86.4602 42.6447 86.6577 42.8265 86.8026C43.0083 86.9474 43.2924 87.0682 43.6788 87.1648L44.6504 87.4034C45.2356 87.5455 45.6717 87.7628 45.9586 88.0554C46.2456 88.3452 46.389 88.7187 46.389 89.1761C46.389 89.5511 46.2811 89.8864 46.0652 90.1818C45.8521 90.4773 45.5538 90.7102 45.1703 90.8807C44.7868 91.0511 44.3407 91.1364 43.8322 91.1364C43.1646 91.1364 42.612 90.9915 42.1745 90.7017C41.737 90.4119 41.46 89.9886 41.3436 89.4318L42.2981 89.1932C42.389 89.5455 42.5609 89.8097 42.8137 89.9858C43.0694 90.1619 43.4032 90.25 43.8152 90.25C44.2839 90.25 44.6561 90.1506 44.9316 89.9517C45.21 89.75 45.3493 89.5085 45.3493 89.2273C45.3493 89 45.2697 88.8097 45.1106 88.6562C44.9515 88.5 44.7072 88.3835 44.3777 88.3068L43.2868 88.0511C42.6873 87.9091 42.247 87.6889 41.9657 87.3906C41.6873 87.0895 41.5481 86.7131 41.5481 86.2614C41.5481 85.892 41.6518 85.5653 41.8592 85.2812C42.0694 84.9972 42.3549 84.7741 42.7157 84.6122C43.0794 84.4503 43.4913 84.3693 43.9515 84.3693C44.5993 84.3693 45.1078 84.5114 45.4771 84.7955C45.8493 85.0795 46.1135 85.4545 46.2697 85.9205ZM52.5392 85.9205L51.6358 86.1761C51.579 86.0256 51.4952 85.8793 51.3844 85.7372C51.2765 85.5923 51.1287 85.473 50.9412 85.3793C50.7537 85.2855 50.5137 85.2386 50.2211 85.2386C49.8205 85.2386 49.4867 85.331 49.2196 85.5156C48.9554 85.6974 48.8233 85.929 48.8233 86.2102C48.8233 86.4602 48.9142 86.6577 49.0961 86.8026C49.2779 86.9474 49.562 87.0682 49.9483 87.1648L50.9199 87.4034C51.5051 87.5455 51.9412 87.7628 52.2282 88.0554C52.5151 88.3452 52.6586 88.7187 52.6586 89.1761C52.6586 89.5511 52.5506 89.8864 52.3347 90.1818C52.1216 90.4773 51.8233 90.7102 51.4398 90.8807C51.0563 91.0511 50.6103 91.1364 50.1017 91.1364C49.4341 91.1364 48.8816 90.9915 48.4441 90.7017C48.0066 90.4119 47.7296 89.9886 47.6131 89.4318L48.5676 89.1932C48.6586 89.5455 48.8304 89.8097 49.0833 89.9858C49.339 90.1619 49.6728 90.25 50.0847 90.25C50.5534 90.25 50.9256 90.1506 51.2012 89.9517C51.4796 89.75 51.6188 89.5085 51.6188 89.2273C51.6188 89 51.5392 88.8097 51.3801 88.6562C51.2211 88.5 50.9767 88.3835 50.6472 88.3068L49.5563 88.0511C48.9569 87.9091 48.5165 87.6889 48.2353 87.3906C47.9569 87.0895 47.8176 86.7131 47.8176 86.2614C47.8176 85.892 47.9213 85.5653 48.1287 85.2812C48.339 84.9972 48.6245 84.7741 48.9853 84.6122C49.3489 84.4503 49.7608 84.3693 50.2211 84.3693C50.8688 84.3693 51.3773 84.5114 51.7466 84.7955C52.1188 85.0795 52.383 85.4545 52.5392 85.9205ZM56.0985 91.1534C55.6838 91.1534 55.3074 91.0753 54.9693 90.919C54.6312 90.7599 54.3627 90.5312 54.1639 90.233C53.965 89.9318 53.8656 89.5682 53.8656 89.142C53.8656 88.767 53.9395 88.4631 54.0872 88.2301C54.2349 87.9943 54.4324 87.8097 54.6795 87.6761C54.9267 87.5426 55.1994 87.4432 55.4977 87.3778C55.7988 87.3097 56.1014 87.2557 56.4054 87.2159C56.8031 87.1648 57.1255 87.1264 57.3727 87.1009C57.6227 87.0724 57.8045 87.0256 57.9181 86.9602C58.0346 86.8949 58.0929 86.7812 58.0929 86.6193V86.5852C58.0929 86.1648 57.9778 85.8381 57.7477 85.6051C57.5204 85.3722 57.1752 85.2557 56.7122 85.2557C56.2321 85.2557 55.8556 85.3608 55.5829 85.571C55.3102 85.7812 55.1184 86.0057 55.0076 86.2443L54.0531 85.9034C54.2235 85.5057 54.4508 85.196 54.7349 84.9744C55.0218 84.75 55.3343 84.5937 55.6724 84.5057C56.0133 84.4148 56.3485 84.3693 56.6781 84.3693C56.8883 84.3693 57.1298 84.3949 57.4025 84.446C57.6781 84.4943 57.9437 84.5952 58.1994 84.7486C58.4579 84.902 58.6724 85.1335 58.8429 85.4432C59.0133 85.7528 59.0985 86.1676 59.0985 86.6875V91H58.0929V90.1136H58.0417C57.9735 90.2557 57.8599 90.4077 57.7008 90.5696C57.5417 90.7315 57.3301 90.8693 57.0659 90.983C56.8017 91.0966 56.4792 91.1534 56.0985 91.1534ZM56.252 90.25C56.6497 90.25 56.9849 90.1719 57.2576 90.0156C57.5332 89.8594 57.7406 89.6577 57.8798 89.4105C58.0218 89.1634 58.0929 88.9034 58.0929 88.6307V87.7102C58.0502 87.7614 57.9565 87.8082 57.8116 87.8509C57.6696 87.8906 57.5048 87.9261 57.3173 87.9574C57.1326 87.9858 56.9522 88.0114 56.7761 88.0341C56.6028 88.054 56.4622 88.071 56.3542 88.0852C56.0929 88.1193 55.8485 88.1747 55.6213 88.2514C55.3968 88.3253 55.215 88.4375 55.0758 88.5881C54.9395 88.7358 54.8713 88.9375 54.8713 89.1932C54.8713 89.5426 55.0005 89.8068 55.2591 89.9858C55.5204 90.1619 55.8514 90.25 56.252 90.25ZM61.3475 93.4545C61.177 93.4545 61.025 93.4403 60.8915 93.4119C60.758 93.3864 60.6657 93.3608 60.6145 93.3352L60.8702 92.4489C61.1145 92.5114 61.3304 92.5341 61.5179 92.517C61.7054 92.5 61.8716 92.4162 62.0165 92.2656C62.1642 92.1179 62.2992 91.8778 62.4213 91.5455L62.6088 91.0341L60.1884 84.4545H61.2793L63.0861 89.6705H63.1543L64.9611 84.4545H66.052L63.2736 91.9545C63.1486 92.2926 62.9938 92.5724 62.8091 92.794C62.6245 93.0185 62.41 93.1847 62.1657 93.2926C61.9242 93.4006 61.6515 93.4545 61.3475 93.4545Z" fill="#292D32"/>
<defs>
<clipPath id="clip0_74_6019">
<rect width="100" height="75" rx="3" fill="white"/>
</clipPath>
</defs>
</svg>
