<svg width="100" height="94" viewBox="0 0 100 94" fill="none" xmlns="http://www.w3.org/2000/svg">
<g clip-path="url(#clip0_74_5840)">
<rect width="100" height="75" rx="3" fill="white"/>
<rect x="0.5" y="0.5" width="99" height="8" fill="#223368"/>
<rect x="0.5" y="0.5" width="99" height="8" stroke="#292D32"/>
<line x1="12" y1="25.5" x2="56" y2="25.5" stroke="#292D32"/>
<line x1="58.5" y1="22" x2="58.5" y2="30" stroke="white"/>
<line x1="60" y1="25.5" x2="88" y2="25.5" stroke="#292D32"/>
<line x1="12" y1="41.5" x2="36" y2="41.5" stroke="#292D32"/>
<rect x="40.5" y="38.5" width="29" height="7" rx="0.5" stroke="#292D32"/>
<line x1="74" y1="41.5" x2="88" y2="41.5" stroke="#292D32"/>
<line x1="12" y1="57.5" x2="19" y2="57.5" stroke="#292D32"/>
<rect x="23.5" y="54.5" width="29" height="7" rx="0.5" stroke="#292D32"/>
<line x1="57" y1="57.5" x2="71" y2="57.5" stroke="#292D32"/>
</g>
<rect x="0.5" y="0.5" width="99" height="74" rx="2.5" stroke="#292D32"/>
<path d="M2.14862 91V82.2727H7.38157V83.2102H3.20543V86.1591H6.98952V87.0966H3.20543V91H2.14862ZM9.05522 91V84.4545H10.0609V91H9.05522ZM9.56658 83.3636C9.37056 83.3636 9.20153 83.2969 9.05948 83.1634C8.92028 83.0298 8.85067 82.8693 8.85067 82.6818C8.85067 82.4943 8.92028 82.3338 9.05948 82.2003C9.20153 82.0668 9.37056 82 9.56658 82C9.76261 82 9.93022 82.0668 10.0694 82.2003C10.2115 82.3338 10.2825 82.4943 10.2825 82.6818C10.2825 82.8693 10.2115 83.0298 10.0694 83.1634C9.93022 83.2969 9.76261 83.3636 9.56658 83.3636ZM12.9086 82.2727V91H11.9029V82.2727H12.9086ZM15.7562 82.2727V91H14.7505V82.2727H15.7562ZM21.3482 86.7898V87.7273H17.53V86.7898H21.3482ZM23.1177 91V84.4545H24.1234V91H23.1177ZM23.6291 83.3636C23.4331 83.3636 23.264 83.2969 23.122 83.1634C22.9828 83.0298 22.9132 82.8693 22.9132 82.6818C22.9132 82.4943 22.9828 82.3338 23.122 82.2003C23.264 82.0668 23.4331 82 23.6291 82C23.8251 82 23.9927 82.0668 24.1319 82.2003C24.274 82.3338 24.345 82.4943 24.345 82.6818C24.345 82.8693 24.274 83.0298 24.1319 83.1634C23.9927 83.2969 23.8251 83.3636 23.6291 83.3636ZM26.9711 87.0625V91H25.9654V84.4545H26.937V85.4773H27.0222C27.1756 85.1449 27.4086 84.8778 27.7211 84.6761C28.0336 84.4716 28.437 84.3693 28.9313 84.3693C29.3745 84.3693 29.7623 84.4602 30.0946 84.642C30.427 84.821 30.6855 85.0938 30.8702 85.4602C31.0549 85.8239 31.1472 86.2841 31.1472 86.8409V91H30.1415V86.9091C30.1415 86.3949 30.008 85.9943 29.7409 85.7074C29.4739 85.4176 29.1074 85.2727 28.6415 85.2727C28.3205 85.2727 28.0336 85.3423 27.7807 85.4815C27.5307 85.6207 27.3333 85.8239 27.1884 86.0909C27.0435 86.358 26.9711 86.6818 26.9711 87.0625ZM36.7349 86.7898V87.7273H32.9167V86.7898H36.7349ZM41.351 84.4545V85.3068H37.959V84.4545H41.351ZM38.9476 82.8864H39.9533V89.125C39.9533 89.4091 39.9945 89.6222 40.0769 89.7642C40.1621 89.9034 40.2701 89.9972 40.4007 90.0455C40.5343 90.0909 40.6749 90.1136 40.8226 90.1136C40.9334 90.1136 41.0243 90.108 41.0953 90.0966C41.1664 90.0824 41.2232 90.071 41.2658 90.0625L41.4703 90.9659C41.4022 90.9915 41.307 91.017 41.1848 91.0426C41.0627 91.071 40.9078 91.0852 40.7203 91.0852C40.4363 91.0852 40.1578 91.0241 39.8851 90.902C39.6152 90.7798 39.3908 90.5938 39.2118 90.3438C39.0357 90.0938 38.9476 89.7784 38.9476 89.3977V82.8864ZM44.0101 87.0625V91H43.0044V82.2727H44.0101V85.4773H44.0953C44.2488 85.1392 44.4789 84.8707 44.7857 84.6719C45.0953 84.4702 45.5073 84.3693 46.0215 84.3693C46.4675 84.3693 46.8581 84.4588 47.1934 84.6378C47.5286 84.8139 47.7885 85.0852 47.9732 85.4517C48.1607 85.8153 48.2544 86.2784 48.2544 86.8409V91H47.2488V86.9091C47.2488 86.3892 47.1138 85.9872 46.8439 85.7031C46.5769 85.4162 46.2061 85.2727 45.7317 85.2727C45.4022 85.2727 45.1067 85.3423 44.8453 85.4815C44.5868 85.6207 44.3823 85.8239 44.2317 86.0909C44.084 86.358 44.0101 86.6818 44.0101 87.0625ZM52.8386 91.1364C52.2079 91.1364 51.6639 90.9972 51.2065 90.7188C50.752 90.4375 50.4011 90.0455 50.1539 89.5426C49.9096 89.0369 49.7875 88.4489 49.7875 87.7784C49.7875 87.108 49.9096 86.517 50.1539 86.0057C50.4011 85.4915 50.7449 85.0909 51.1852 84.804C51.6284 84.5142 52.1454 84.3693 52.7363 84.3693C53.0772 84.3693 53.4139 84.4261 53.7463 84.5398C54.0787 84.6534 54.3812 84.8381 54.6539 85.0938C54.9267 85.3466 55.144 85.6818 55.3059 86.0994C55.4679 86.517 55.5488 87.0312 55.5488 87.642V88.0682H50.5034V87.1989H54.5261C54.5261 86.8295 54.4522 86.5 54.3045 86.2102C54.1596 85.9205 53.9522 85.6918 53.6824 85.5241C53.4153 85.3565 53.1 85.2727 52.7363 85.2727C52.3358 85.2727 51.9892 85.3722 51.6966 85.571C51.4068 85.767 51.1838 86.0227 51.0275 86.3381C50.8713 86.6534 50.7931 86.9915 50.7931 87.3523V87.9318C50.7931 88.4261 50.8784 88.8452 51.0488 89.1889C51.2221 89.5298 51.4622 89.7898 51.769 89.9688C52.0758 90.1449 52.4324 90.233 52.8386 90.233C53.1028 90.233 53.3414 90.196 53.5545 90.1222C53.7704 90.0455 53.9565 89.9318 54.1127 89.7812C54.269 89.6278 54.3897 89.4375 54.475 89.2102L55.4466 89.483C55.3443 89.8125 55.1724 90.1023 54.9309 90.3523C54.6895 90.5994 54.3912 90.7926 54.036 90.9318C53.6809 91.0682 53.2818 91.1364 52.8386 91.1364ZM60.8287 86.7898V87.7273H57.0105V86.7898H60.8287ZM62.7346 91V82.2727H65.7857C66.3936 82.2727 66.8951 82.3778 67.29 82.5881C67.6848 82.7955 67.9789 83.0753 68.1721 83.4276C68.3652 83.777 68.4618 84.1648 68.4618 84.5909C68.4618 84.9659 68.3951 85.2756 68.2615 85.5199C68.1309 85.7642 67.9576 85.9574 67.7417 86.0994C67.5286 86.2415 67.2971 86.3466 67.0471 86.4148V86.5C67.3141 86.517 67.5826 86.6108 67.8525 86.7812C68.1223 86.9517 68.3482 87.196 68.53 87.5142C68.7118 87.8324 68.8027 88.2216 68.8027 88.6818C68.8027 89.1193 68.7033 89.5128 68.5044 89.8622C68.3056 90.2116 67.9917 90.4886 67.5627 90.6932C67.1337 90.8977 66.5755 91 65.888 91H62.7346ZM63.7914 90.0625H65.888C66.5783 90.0625 67.0684 89.929 67.3581 89.6619C67.6507 89.392 67.7971 89.0653 67.7971 88.6818C67.7971 88.3864 67.7218 88.1136 67.5712 87.8636C67.4206 87.6108 67.2061 87.4091 66.9277 87.2585C66.6493 87.1051 66.3198 87.0284 65.9391 87.0284H63.7914V90.0625ZM63.7914 86.108H65.7516C66.0698 86.108 66.3567 86.0455 66.6124 85.9205C66.8709 85.7955 67.0755 85.6193 67.226 85.392C67.3794 85.1648 67.4561 84.8977 67.4561 84.5909C67.4561 84.2074 67.3226 83.8821 67.0556 83.6151C66.7885 83.3452 66.3652 83.2102 65.7857 83.2102H63.7914V86.108ZM71.4086 82.2727V91H70.4029V82.2727H71.4086ZM75.1767 91.1534C74.7619 91.1534 74.3855 91.0753 74.0474 90.919C73.7093 90.7599 73.4409 90.5312 73.242 90.233C73.0431 89.9318 72.9437 89.5682 72.9437 89.142C72.9437 88.767 73.0176 88.4631 73.1653 88.2301C73.313 87.9943 73.5105 87.8097 73.7576 87.6761C74.0048 87.5426 74.2775 87.4432 74.5758 87.3778C74.877 87.3097 75.1795 87.2557 75.4835 87.2159C75.8812 87.1648 76.2037 87.1264 76.4508 87.1009C76.7008 87.0724 76.8826 87.0256 76.9963 86.9602C77.1127 86.8949 77.171 86.7812 77.171 86.6193V86.5852C77.171 86.1648 77.0559 85.8381 76.8258 85.6051C76.5985 85.3722 76.2534 85.2557 75.7903 85.2557C75.3102 85.2557 74.9338 85.3608 74.661 85.571C74.3883 85.7812 74.1966 86.0057 74.0858 86.2443L73.1312 85.9034C73.3017 85.5057 73.5289 85.196 73.813 84.9744C74.1 84.75 74.4125 84.5937 74.7505 84.5057C75.0914 84.4148 75.4267 84.3693 75.7562 84.3693C75.9664 84.3693 76.2079 84.3949 76.4806 84.446C76.7562 84.4943 77.0218 84.5952 77.2775 84.7486C77.536 84.902 77.7505 85.1335 77.921 85.4432C78.0914 85.7528 78.1767 86.1676 78.1767 86.6875V91H77.171V90.1136H77.1199C77.0517 90.2557 76.938 90.4077 76.7789 90.5696C76.6199 90.7315 76.4082 90.8693 76.144 90.983C75.8798 91.0966 75.5574 91.1534 75.1767 91.1534ZM75.3301 90.25C75.7278 90.25 76.063 90.1719 76.3358 90.0156C76.6113 89.8594 76.8187 89.6577 76.9579 89.4105C77.1 89.1634 77.171 88.9034 77.171 88.6307V87.7102C77.1284 87.7614 77.0346 87.8082 76.8897 87.8509C76.7477 87.8906 76.5829 87.9261 76.3954 87.9574C76.2108 87.9858 76.0304 88.0114 75.8542 88.0341C75.6809 88.054 75.5403 88.071 75.4324 88.0852C75.171 88.1193 74.9267 88.1747 74.6994 88.2514C74.475 88.3253 74.2931 88.4375 74.1539 88.5881C74.0176 88.7358 73.9494 88.9375 73.9494 89.1932C73.9494 89.5426 74.0787 89.8068 74.3372 89.9858C74.5985 90.1619 74.9295 90.25 75.3301 90.25ZM81.0179 87.0625V91H80.0123V84.4545H80.9838V85.4773H81.0691C81.2225 85.1449 81.4554 84.8778 81.7679 84.6761C82.0804 84.4716 82.4838 84.3693 82.9782 84.3693C83.4213 84.3693 83.8091 84.4602 84.1415 84.642C84.4739 84.821 84.7324 85.0938 84.9171 85.4602C85.1017 85.8239 85.1941 86.2841 85.1941 86.8409V91H84.1884V86.9091C84.1884 86.3949 84.0549 85.9943 83.7878 85.7074C83.5208 85.4176 83.1543 85.2727 82.6884 85.2727C82.3674 85.2727 82.0804 85.3423 81.8276 85.4815C81.5776 85.6207 81.3801 85.8239 81.2353 86.0909C81.0904 86.358 81.0179 86.6818 81.0179 87.0625ZM87.9693 88.6136L87.9522 87.3693H88.1568L91.0204 84.4545H92.2647L89.2136 87.5398H89.1284L87.9693 88.6136ZM87.0318 91V82.2727H88.0375V91H87.0318ZM91.1909 91L88.6341 87.7614L89.35 87.0625L92.4693 91H91.1909ZM98.1955 85.9205L97.2921 86.1761C97.2353 86.0256 97.1515 85.8793 97.0407 85.7372C96.9327 85.5923 96.785 85.473 96.5975 85.3793C96.41 85.2855 96.1699 85.2386 95.8773 85.2386C95.4767 85.2386 95.1429 85.331 94.8759 85.5156C94.6117 85.6974 94.4796 85.929 94.4796 86.2102C94.4796 86.4602 94.5705 86.6577 94.7523 86.8026C94.9341 86.9474 95.2182 87.0682 95.6046 87.1648L96.5762 87.4034C97.1614 87.5455 97.5975 87.7628 97.8844 88.0554C98.1713 88.3452 98.3148 88.7187 98.3148 89.1761C98.3148 89.5511 98.2069 89.8864 97.9909 90.1818C97.7779 90.4773 97.4796 90.7102 97.0961 90.8807C96.7125 91.0511 96.2665 91.1364 95.758 91.1364C95.0904 91.1364 94.5378 90.9915 94.1003 90.7017C93.6628 90.4119 93.3858 89.9886 93.2694 89.4318L94.2239 89.1932C94.3148 89.5455 94.4867 89.8097 94.7395 89.9858C94.9952 90.1619 95.329 90.25 95.7409 90.25C96.2097 90.25 96.5819 90.1506 96.8574 89.9517C97.1358 89.75 97.275 89.5085 97.275 89.2273C97.275 89 97.1955 88.8097 97.0364 88.6562C96.8773 88.5 96.633 88.3835 96.3034 88.3068L95.2125 88.0511C94.6131 87.9091 94.1728 87.6889 93.8915 87.3906C93.6131 87.0895 93.4739 86.7131 93.4739 86.2614C93.4739 85.892 93.5776 85.5653 93.785 85.2812C93.9952 84.9972 94.2807 84.7741 94.6415 84.6122C95.0051 84.4503 95.4171 84.3693 95.8773 84.3693C96.525 84.3693 97.0336 84.5114 97.4029 84.7955C97.775 85.0795 98.0392 85.4545 98.1955 85.9205Z" fill="#292D32"/>
<defs>
<clipPath id="clip0_74_5840">
<rect width="100" height="75" rx="3" fill="white"/>
</clipPath>
</defs>
</svg>
