<svg width="100" height="94" viewBox="0 0 100 94" fill="none" xmlns="http://www.w3.org/2000/svg">
<g clip-path="url(#clip0_227_13127)">
<rect width="100" height="75" rx="3" fill="white"/>
<rect x="0.5" y="0.5" width="99" height="8" fill="#223368"/>
<rect x="0.5" y="0.5" width="99" height="8" stroke="#292D32"/>
<line x1="12" y1="25.5" x2="56" y2="25.5" stroke="#292D32"/>
<line x1="58.5" y1="22" x2="58.5" y2="30" stroke="white"/>
<line x1="60" y1="25.5" x2="88" y2="25.5" stroke="#292D32"/>
<line x1="12" y1="41.5" x2="36" y2="41.5" stroke="#292D32"/>
<g clip-path="url(#clip1_227_13127)">
<rect x="-0.5" y="0.5" width="9" height="9" transform="matrix(1 0 0 -1 61 47)" fill="#223368" fill-opacity="0.2"/>
<rect x="-0.5" y="0.5" width="9" height="9" transform="matrix(1 0 0 -1 61 47)" stroke="#292D32"/>
<path d="M67.64 43.0166L65.4667 40.8433C65.21 40.5866 64.79 40.5866 64.5333 40.8433L62.36 43.0166" stroke="#292D32" stroke-miterlimit="10" stroke-linecap="round" stroke-linejoin="round"/>
</g>
<rect x="40.5" y="38.5" width="29" height="7" rx="0.5" stroke="#292D32"/>
<line x1="74" y1="41.5" x2="88" y2="41.5" stroke="#292D32"/>
<line x1="12" y1="57.5" x2="19" y2="57.5" stroke="#292D32"/>
<g clip-path="url(#clip2_227_13127)">
<rect x="43.5" y="53.5" width="9" height="9" fill="#223368" fill-opacity="0.2"/>
<rect x="43.5" y="53.5" width="9" height="9" stroke="#292D32"/>
<path d="M50.64 56.9834L48.4667 59.1567C48.21 59.4134 47.79 59.4134 47.5333 59.1567L45.36 56.9834" stroke="#292D32" stroke-miterlimit="10" stroke-linecap="round" stroke-linejoin="round"/>
</g>
<rect x="23.5" y="54.5" width="29" height="7" rx="0.5" stroke="#292D32"/>
<line x1="57" y1="57.5" x2="71" y2="57.5" stroke="#292D32"/>
</g>
<rect x="0.5" y="0.5" width="99" height="74" rx="2.5" stroke="#292D32"/>
<path d="M8.40962 84.4545C8.35849 84.0227 8.1511 83.6875 7.78746 83.4489C7.42383 83.2102 6.97781 83.0909 6.4494 83.0909C6.06303 83.0909 5.72496 83.1534 5.43519 83.2784C5.14826 83.4034 4.92383 83.5753 4.7619 83.794C4.60281 84.0128 4.52326 84.2614 4.52326 84.5398C4.52326 84.7727 4.57866 84.973 4.68945 85.1406C4.80309 85.3054 4.94798 85.4432 5.12411 85.554C5.30025 85.6619 5.48491 85.7514 5.67809 85.8224C5.87127 85.8906 6.04883 85.946 6.21076 85.9886L7.09712 86.2273C7.3244 86.2869 7.57724 86.3693 7.85565 86.4744C8.1369 86.5795 8.40536 86.723 8.66104 86.9048C8.91957 87.0838 9.13264 87.3139 9.30025 87.5952C9.46786 87.8764 9.55167 88.2216 9.55167 88.6307C9.55167 89.1023 9.42809 89.5284 9.18093 89.9091C8.93661 90.2898 8.57866 90.5923 8.10707 90.8168C7.63832 91.0412 7.06871 91.1534 6.39826 91.1534C5.77326 91.1534 5.23207 91.0526 4.77468 90.8509C4.32013 90.6491 3.96218 90.3679 3.70082 90.0071C3.44229 89.6463 3.29599 89.2273 3.2619 88.75H4.35281C4.38121 89.0795 4.49201 89.3523 4.68519 89.5682C4.88121 89.7812 5.12837 89.9403 5.42667 90.0455C5.72781 90.1477 6.05167 90.1989 6.39826 90.1989C6.80167 90.1989 7.16389 90.1335 7.48491 90.0028C7.80593 89.8693 8.06019 89.6847 8.24769 89.4489C8.43519 89.2102 8.52894 88.9318 8.52894 88.6136C8.52894 88.3239 8.44798 88.0881 8.28604 87.9062C8.12411 87.7244 7.91104 87.5767 7.64684 87.4631C7.38264 87.3494 7.09712 87.25 6.79031 87.1648L5.71644 86.858C5.03462 86.6619 4.49485 86.3821 4.09712 86.0185C3.6994 85.6548 3.50053 85.179 3.50053 84.5909C3.50053 84.1023 3.63263 83.6761 3.89684 83.3125C4.16388 82.946 4.52184 82.6619 4.9707 82.4602C5.42241 82.2557 5.92667 82.1534 6.48349 82.1534C7.04599 82.1534 7.54599 82.2543 7.98349 82.456C8.42099 82.6548 8.76758 82.9276 9.02326 83.2741C9.28178 83.6207 9.41815 84.0142 9.43235 84.4545H8.40962ZM13.8972 91.1364C13.2665 91.1364 12.7225 90.9972 12.2651 90.7188C11.8105 90.4375 11.4597 90.0455 11.2125 89.5426C10.9682 89.0369 10.8461 88.4489 10.8461 87.7784C10.8461 87.108 10.9682 86.517 11.2125 86.0057C11.4597 85.4915 11.8034 85.0909 12.2438 84.804C12.687 84.5142 13.204 84.3693 13.7949 84.3693C14.1358 84.3693 14.4725 84.4261 14.8049 84.5398C15.1373 84.6534 15.4398 84.8381 15.7125 85.0938C15.9853 85.3466 16.2026 85.6818 16.3645 86.0994C16.5265 86.517 16.6074 87.0312 16.6074 87.642V88.0682H11.562V87.1989H15.5847C15.5847 86.8295 15.5108 86.5 15.3631 86.2102C15.2182 85.9205 15.0108 85.6918 14.7409 85.5241C14.4739 85.3565 14.1586 85.2727 13.7949 85.2727C13.3944 85.2727 13.0478 85.3722 12.7551 85.571C12.4654 85.767 12.2424 86.0227 12.0861 86.3381C11.9299 86.6534 11.8517 86.9915 11.8517 87.3523V87.9318C11.8517 88.4261 11.937 88.8452 12.1074 89.1889C12.2807 89.5298 12.5208 89.7898 12.8276 89.9688C13.1344 90.1449 13.4909 90.233 13.8972 90.233C14.1614 90.233 14.4 90.196 14.6131 90.1222C14.829 90.0455 15.0151 89.9318 15.1713 89.7812C15.3276 89.6278 15.4483 89.4375 15.5336 89.2102L16.5051 89.483C16.4029 89.8125 16.231 90.1023 15.9895 90.3523C15.748 90.5994 15.4498 90.7926 15.0946 90.9318C14.7395 91.0682 14.3404 91.1364 13.8972 91.1364ZM19.1429 82.2727V91H18.1373V82.2727H19.1429ZM23.7292 91.1364C23.0985 91.1364 22.5545 90.9972 22.0971 90.7188C21.6426 90.4375 21.2917 90.0455 21.0446 89.5426C20.8002 89.0369 20.6781 88.4489 20.6781 87.7784C20.6781 87.108 20.8002 86.517 21.0446 86.0057C21.2917 85.4915 21.6355 85.0909 22.0758 84.804C22.519 84.5142 23.036 84.3693 23.627 84.3693C23.9679 84.3693 24.3045 84.4261 24.6369 84.5398C24.9693 84.6534 25.2718 84.8381 25.5446 85.0938C25.8173 85.3466 26.0346 85.6818 26.1966 86.0994C26.3585 86.517 26.4395 87.0312 26.4395 87.642V88.0682H21.394V87.1989H25.4167C25.4167 86.8295 25.3429 86.5 25.1951 86.2102C25.0502 85.9205 24.8429 85.6918 24.573 85.5241C24.3059 85.3565 23.9906 85.2727 23.627 85.2727C23.2264 85.2727 22.8798 85.3722 22.5872 85.571C22.2974 85.767 22.0744 86.0227 21.9181 86.3381C21.7619 86.6534 21.6838 86.9915 21.6838 87.3523V87.9318C21.6838 88.4261 21.769 88.8452 21.9395 89.1889C22.1127 89.5298 22.3528 89.7898 22.6596 89.9688C22.9664 90.1449 23.323 90.233 23.7292 90.233C23.9934 90.233 24.2321 90.196 24.4451 90.1222C24.661 90.0455 24.8471 89.9318 25.0034 89.7812C25.1596 89.6278 25.2804 89.4375 25.3656 89.2102L26.3372 89.483C26.2349 89.8125 26.063 90.1023 25.8216 90.3523C25.5801 90.5994 25.2818 90.7926 24.9267 90.9318C24.5716 91.0682 24.1724 91.1364 23.7292 91.1364ZM30.6284 91.1364C30.0147 91.1364 29.4863 90.9915 29.0431 90.7017C28.6 90.4119 28.2591 90.0128 28.0204 89.5043C27.7818 88.9957 27.6625 88.4148 27.6625 87.7614C27.6625 87.0966 27.7846 86.5099 28.0289 86.0014C28.2761 85.4901 28.6199 85.0909 29.0602 84.804C29.5034 84.5142 30.0204 84.3693 30.6113 84.3693C31.0716 84.3693 31.4863 84.4545 31.8556 84.625C32.225 84.7955 32.5275 85.0341 32.7633 85.3409C32.9991 85.6477 33.1454 86.0057 33.2022 86.4148H32.1966C32.1199 86.1165 31.9494 85.8523 31.6852 85.6222C31.4238 85.3892 31.0716 85.2727 30.6284 85.2727C30.2363 85.2727 29.8926 85.375 29.5971 85.5795C29.3045 85.7812 29.0758 86.0668 28.911 86.4361C28.7491 86.8026 28.6681 87.233 28.6681 87.7273C28.6681 88.233 28.7477 88.6733 28.9068 89.0483C29.0687 89.4233 29.296 89.7145 29.5886 89.9219C29.8841 90.1293 30.2306 90.233 30.6284 90.233C30.8897 90.233 31.127 90.1875 31.34 90.0966C31.5531 90.0057 31.7335 89.875 31.8812 89.7045C32.0289 89.5341 32.1341 89.3295 32.1966 89.0909H33.2022C33.1454 89.4773 33.0048 89.8253 32.7804 90.1349C32.5588 90.4418 32.2647 90.6861 31.8983 90.8679C31.5346 91.0469 31.1113 91.1364 30.6284 91.1364ZM37.519 84.4545V85.3068H34.127V84.4545H37.519ZM35.1156 82.8864H36.1213V89.125C36.1213 89.4091 36.1625 89.6222 36.2449 89.7642C36.3301 89.9034 36.438 89.9972 36.5687 90.0455C36.7022 90.0909 36.8429 90.1136 36.9906 90.1136C37.1014 90.1136 37.1923 90.108 37.2633 90.0966C37.3343 90.0824 37.3912 90.071 37.4338 90.0625L37.6383 90.9659C37.5701 90.9915 37.475 91.017 37.3528 91.0426C37.2306 91.071 37.0758 91.0852 36.8883 91.0852C36.6042 91.0852 36.3258 91.0241 36.0531 90.902C35.7832 90.7798 35.5588 90.5938 35.3798 90.3438C35.2037 90.0938 35.1156 89.7784 35.1156 89.3977V82.8864ZM45.3216 84.4545V85.3068H41.7931V84.4545H45.3216ZM42.85 91V83.5511C42.85 83.1761 42.938 82.8636 43.1142 82.6136C43.2903 82.3636 43.519 82.1761 43.8002 82.0511C44.0815 81.9261 44.3784 81.8636 44.6909 81.8636C44.938 81.8636 45.1397 81.8835 45.296 81.9233C45.4522 81.9631 45.5687 82 45.6454 82.0341L45.3556 82.9034C45.3045 82.8864 45.2335 82.8651 45.1426 82.8395C45.0545 82.8139 44.938 82.8011 44.7931 82.8011C44.4608 82.8011 44.2207 82.8849 44.073 83.0526C43.9281 83.2202 43.8556 83.4659 43.8556 83.7898V91H42.85ZM46.731 91V84.4545H47.7026V85.4432H47.7708C47.8901 85.1193 48.106 84.8565 48.4185 84.6548C48.731 84.4531 49.0833 84.3523 49.4753 84.3523C49.5492 84.3523 49.6415 84.3537 49.7523 84.3565C49.8631 84.3594 49.9469 84.3636 50.0037 84.3693V85.392C49.9696 85.3835 49.8915 85.3707 49.7694 85.3537C49.65 85.3338 49.5236 85.3239 49.3901 85.3239C49.0719 85.3239 48.7878 85.3906 48.5378 85.5241C48.2907 85.6548 48.0946 85.8366 47.9498 86.0696C47.8077 86.2997 47.7367 86.5625 47.7367 86.858V91H46.731ZM53.6557 91.1364C53.0648 91.1364 52.5463 90.9957 52.1003 90.7145C51.6571 90.4332 51.3105 90.0398 51.0605 89.5341C50.8134 89.0284 50.6898 88.4375 50.6898 87.7614C50.6898 87.0795 50.8134 86.4844 51.0605 85.9759C51.3105 85.4673 51.6571 85.0724 52.1003 84.7912C52.5463 84.5099 53.0648 84.3693 53.6557 84.3693C54.2466 84.3693 54.7637 84.5099 55.2069 84.7912C55.6529 85.0724 55.9995 85.4673 56.2466 85.9759C56.4966 86.4844 56.6216 87.0795 56.6216 87.7614C56.6216 88.4375 56.4966 89.0284 56.2466 89.5341C55.9995 90.0398 55.6529 90.4332 55.2069 90.7145C54.7637 90.9957 54.2466 91.1364 53.6557 91.1364ZM53.6557 90.233C54.1046 90.233 54.4739 90.1179 54.7637 89.8878C55.0534 89.6577 55.2679 89.3551 55.4071 88.9801C55.5463 88.6051 55.6159 88.1989 55.6159 87.7614C55.6159 87.3239 55.5463 86.9162 55.4071 86.5384C55.2679 86.1605 55.0534 85.8551 54.7637 85.6222C54.4739 85.3892 54.1046 85.2727 53.6557 85.2727C53.2069 85.2727 52.8375 85.3892 52.5478 85.6222C52.258 85.8551 52.0435 86.1605 51.9043 86.5384C51.7651 86.9162 51.6955 87.3239 51.6955 87.7614C51.6955 88.1989 51.7651 88.6051 51.9043 88.9801C52.0435 89.3551 52.258 89.6577 52.5478 89.8878C52.8375 90.1179 53.2069 90.233 53.6557 90.233ZM58.1568 91V84.4545H59.1284V85.4773H59.2136C59.35 85.1278 59.5701 84.8565 59.8741 84.6634C60.1781 84.4673 60.5431 84.3693 60.9693 84.3693C61.4011 84.3693 61.7605 84.4673 62.0474 84.6634C62.3372 84.8565 62.563 85.1278 62.725 85.4773H62.7931C62.9608 85.1392 63.2122 84.8707 63.5474 84.6719C63.8826 84.4702 64.2846 84.3693 64.7534 84.3693C65.3386 84.3693 65.8173 84.5526 66.1895 84.919C66.5616 85.2827 66.7477 85.8494 66.7477 86.6193V91H65.742V86.6193C65.742 86.1364 65.6099 85.7912 65.3457 85.5838C65.0815 85.3764 64.7704 85.2727 64.4125 85.2727C63.9522 85.2727 63.5957 85.4119 63.3429 85.6903C63.09 85.9659 62.9636 86.3153 62.9636 86.7386V91H61.9409V86.517C61.9409 86.1449 61.8201 85.8452 61.5787 85.6179C61.3372 85.3878 61.0261 85.2727 60.6454 85.2727C60.3841 85.2727 60.1397 85.3423 59.9125 85.4815C59.688 85.6207 59.5062 85.8139 59.367 86.0611C59.2306 86.3054 59.1625 86.5881 59.1625 86.9091V91H58.1568ZM72.0978 91V82.2727H73.1547V90.0625H77.2115V91H72.0978ZM78.7115 91V84.4545H79.7172V91H78.7115ZM79.2228 83.3636C79.0268 83.3636 78.8578 83.2969 78.7157 83.1634C78.5765 83.0298 78.5069 82.8693 78.5069 82.6818C78.5069 82.4943 78.5765 82.3338 78.7157 82.2003C78.8578 82.0668 79.0268 82 79.2228 82C79.4189 82 79.5865 82.0668 79.7257 82.2003C79.8677 82.3338 79.9387 82.4943 79.9387 82.6818C79.9387 82.8693 79.8677 83.0298 79.7257 83.1634C79.5865 83.2969 79.4189 83.3636 79.2228 83.3636ZM86.1955 85.9205L85.2921 86.1761C85.2353 86.0256 85.1515 85.8793 85.0407 85.7372C84.9327 85.5923 84.785 85.473 84.5975 85.3793C84.41 85.2855 84.1699 85.2386 83.8773 85.2386C83.4767 85.2386 83.1429 85.331 82.8759 85.5156C82.6117 85.6974 82.4796 85.929 82.4796 86.2102C82.4796 86.4602 82.5705 86.6577 82.7523 86.8026C82.9341 86.9474 83.2182 87.0682 83.6046 87.1648L84.5762 87.4034C85.1614 87.5455 85.5975 87.7628 85.8844 88.0554C86.1713 88.3452 86.3148 88.7187 86.3148 89.1761C86.3148 89.5511 86.2069 89.8864 85.9909 90.1818C85.7779 90.4773 85.4796 90.7102 85.0961 90.8807C84.7125 91.0511 84.2665 91.1364 83.758 91.1364C83.0904 91.1364 82.5378 90.9915 82.1003 90.7017C81.6628 90.4119 81.3858 89.9886 81.2694 89.4318L82.2239 89.1932C82.3148 89.5455 82.4867 89.8097 82.7395 89.9858C82.9952 90.1619 83.329 90.25 83.7409 90.25C84.2097 90.25 84.5819 90.1506 84.8574 89.9517C85.1358 89.75 85.275 89.5085 85.275 89.2273C85.275 89 85.1955 88.8097 85.0364 88.6562C84.8773 88.5 84.633 88.3835 84.3034 88.3068L83.2125 88.0511C82.6131 87.9091 82.1728 87.6889 81.8915 87.3906C81.6131 87.0895 81.4739 86.7131 81.4739 86.2614C81.4739 85.892 81.5776 85.5653 81.785 85.2812C81.9952 84.9972 82.2807 84.7741 82.6415 84.6122C83.0051 84.4503 83.4171 84.3693 83.8773 84.3693C84.525 84.3693 85.0336 84.5114 85.4029 84.7955C85.775 85.0795 86.0392 85.4545 86.1955 85.9205ZM90.6752 84.4545V85.3068H87.2832V84.4545H90.6752ZM88.2718 82.8864H89.2775V89.125C89.2775 89.4091 89.3187 89.6222 89.4011 89.7642C89.4863 89.9034 89.5943 89.9972 89.725 90.0455C89.8585 90.0909 89.9991 90.1136 90.1468 90.1136C90.2576 90.1136 90.3485 90.108 90.4196 90.0966C90.4906 90.0824 90.5474 90.071 90.59 90.0625L90.7946 90.9659C90.7264 90.9915 90.6312 91.017 90.5091 91.0426C90.3869 91.071 90.2321 91.0852 90.0446 91.0852C89.7605 91.0852 89.4821 91.0241 89.2093 90.902C88.9395 90.7798 88.715 90.5938 88.536 90.3438C88.3599 90.0938 88.2718 89.7784 88.2718 89.3977V82.8864ZM96.7072 85.9205L95.8038 86.1761C95.747 86.0256 95.6632 85.8793 95.5524 85.7372C95.4444 85.5923 95.2967 85.473 95.1092 85.3793C94.9217 85.2855 94.6816 85.2386 94.389 85.2386C93.9885 85.2386 93.6547 85.331 93.3876 85.5156C93.1234 85.6974 92.9913 85.929 92.9913 86.2102C92.9913 86.4602 93.0822 86.6577 93.264 86.8026C93.4458 86.9474 93.7299 87.0682 94.1163 87.1648L95.0879 87.4034C95.6731 87.5455 96.1092 87.7628 96.3961 88.0554C96.6831 88.3452 96.8265 88.7187 96.8265 89.1761C96.8265 89.5511 96.7186 89.8864 96.5027 90.1818C96.2896 90.4773 95.9913 90.7102 95.6078 90.8807C95.2243 91.0511 94.7782 91.1364 94.2697 91.1364C93.6021 91.1364 93.0495 90.9915 92.612 90.7017C92.1745 90.4119 91.8975 89.9886 91.7811 89.4318L92.7356 89.1932C92.8265 89.5455 92.9984 89.8097 93.2512 89.9858C93.5069 90.1619 93.8407 90.25 94.2527 90.25C94.7214 90.25 95.0936 90.1506 95.3691 89.9517C95.6475 89.75 95.7868 89.5085 95.7868 89.2273C95.7868 89 95.7072 88.8097 95.5481 88.6562C95.389 88.5 95.1447 88.3835 94.8152 88.3068L93.7243 88.0511C93.1248 87.9091 92.6845 87.6889 92.4032 87.3906C92.1248 87.0895 91.9856 86.7131 91.9856 86.2614C91.9856 85.892 92.0893 85.5653 92.2967 85.2812C92.5069 84.9972 92.7924 84.7741 93.1532 84.6122C93.5169 84.4503 93.9288 84.3693 94.389 84.3693C95.0368 84.3693 95.5453 84.5114 95.9146 84.7955C96.2868 85.0795 96.551 85.4545 96.7072 85.9205Z" fill="#292D32"/>
<defs>
<clipPath id="clip0_227_13127">
<rect width="100" height="75" rx="3" fill="white"/>
</clipPath>
<clipPath id="clip1_227_13127">
<rect x="40" y="38" width="30" height="8" rx="1" fill="white"/>
</clipPath>
<clipPath id="clip2_227_13127">
<rect x="23" y="54" width="30" height="8" rx="1" fill="white"/>
</clipPath>
</defs>
</svg>
