<svg width="100" height="94" viewBox="0 0 100 94" fill="none" xmlns="http://www.w3.org/2000/svg">
<g clip-path="url(#clip0_74_5857)">
<rect width="100" height="75" rx="3" fill="white"/>
<rect x="0.5" y="0.5" width="99" height="8" fill="#223368"/>
<rect x="0.5" y="0.5" width="99" height="8" stroke="#292D32"/>
<g clip-path="url(#clip1_74_5857)">
<rect x="12.5" y="22.5" width="35" height="7" rx="0.5" stroke="#292D32"/>
<line x1="15" y1="26" x2="39" y2="26" stroke="#292D32"/>
<rect x="52.5" y="22.5" width="35" height="7" rx="0.5" fill="#223368"/>
<rect x="52.5" y="22.5" width="35" height="7" rx="0.5" stroke="#292D32"/>
</g>
<g clip-path="url(#clip2_74_5857)">
<rect x="12.5" y="38.5" width="35" height="7" rx="0.5" stroke="#292D32"/>
<line x1="15" y1="42" x2="39" y2="42" stroke="#292D32"/>
<rect x="47.5" y="38.5" width="35" height="7" rx="0.5" fill="#223368" fill-opacity="0.2"/>
<rect x="47.5" y="38.5" width="35" height="7" rx="0.5" stroke="#292D32"/>
</g>
<g clip-path="url(#clip3_74_5857)">
<rect x="12.5" y="54.5" width="35" height="7" rx="0.5" stroke="#292D32"/>
<line x1="15" y1="58" x2="39" y2="58" stroke="#292D32"/>
<rect x="47.5" y="54.5" width="35" height="7" rx="0.5" fill="#223368" fill-opacity="0.2"/>
<rect x="47.5" y="54.5" width="35" height="7" rx="0.5" stroke="#292D32"/>
</g>
<path d="M88.3938 31.0838L86.6638 31.6638C86.1838 31.8238 85.8138 32.1938 85.6538 32.6738L85.0738 34.4038C84.5838 35.8938 82.4838 35.8638 82.0238 34.3738L80.0738 28.0938C79.6938 26.8438 80.8438 25.6938 82.0738 26.0738L88.3638 28.0238C89.8538 28.4938 89.8738 30.5938 88.3938 31.0838Z" fill="white" stroke="#292D32" stroke-width="1.5" stroke-linecap="round" stroke-linejoin="round"/>
</g>
<rect x="0.5" y="0.5" width="99" height="74" rx="2.5" stroke="#292D32"/>
<path d="M24.7072 82.2727H25.9686L28.9345 89.517H29.0368L32.0027 82.2727H33.264V91H32.2754V84.3693H32.1902L29.4629 91H28.5083L25.7811 84.3693H25.6958V91H24.7072V82.2727ZM37.1728 91.1534C36.758 91.1534 36.3816 91.0753 36.0435 90.919C35.7054 90.7599 35.437 90.5312 35.2381 90.233C35.0392 89.9318 34.9398 89.5682 34.9398 89.142C34.9398 88.767 35.0137 88.4631 35.1614 88.2301C35.3091 87.9943 35.5066 87.8097 35.7537 87.6761C36.0009 87.5426 36.2736 87.4432 36.5719 87.3778C36.873 87.3097 37.1756 87.2557 37.4796 87.2159C37.8773 87.1648 38.1998 87.1264 38.4469 87.1009C38.6969 87.0724 38.8787 87.0256 38.9924 86.9602C39.1088 86.8949 39.1671 86.7812 39.1671 86.6193V86.5852C39.1671 86.1648 39.052 85.8381 38.8219 85.6051C38.5946 85.3722 38.2495 85.2557 37.7864 85.2557C37.3063 85.2557 36.9299 85.3608 36.6571 85.571C36.3844 85.7812 36.1926 86.0057 36.0819 86.2443L35.1273 85.9034C35.2978 85.5057 35.525 85.196 35.8091 84.9744C36.0961 84.75 36.4086 84.5937 36.7466 84.5057C37.0875 84.4148 37.4228 84.3693 37.7523 84.3693C37.9625 84.3693 38.204 84.3949 38.4767 84.446C38.7523 84.4943 39.0179 84.5952 39.2736 84.7486C39.5321 84.902 39.7466 85.1335 39.9171 85.4432C40.0875 85.7528 40.1728 86.1676 40.1728 86.6875V91H39.1671V90.1136H39.1159C39.0478 90.2557 38.9341 90.4077 38.775 90.5696C38.6159 90.7315 38.4043 90.8693 38.1401 90.983C37.8759 91.0966 37.5534 91.1534 37.1728 91.1534ZM37.3262 90.25C37.7239 90.25 38.0591 90.1719 38.3319 90.0156C38.6074 89.8594 38.8148 89.6577 38.954 89.4105C39.0961 89.1634 39.1671 88.9034 39.1671 88.6307V87.7102C39.1245 87.7614 39.0307 87.8082 38.8858 87.8509C38.7438 87.8906 38.579 87.9261 38.3915 87.9574C38.2069 87.9858 38.0265 88.0114 37.8503 88.0341C37.677 88.054 37.5364 88.071 37.4284 88.0852C37.1671 88.1193 36.9228 88.1747 36.6955 88.2514C36.4711 88.3253 36.2892 88.4375 36.15 88.5881C36.0137 88.7358 35.9455 88.9375 35.9455 89.1932C35.9455 89.5426 36.0748 89.8068 36.3333 89.9858C36.5946 90.1619 36.9256 90.25 37.3262 90.25ZM44.8549 84.4545V85.3068H41.4629V84.4545H44.8549ZM42.4515 82.8864H43.4572V89.125C43.4572 89.4091 43.4984 89.6222 43.5808 89.7642C43.666 89.9034 43.774 89.9972 43.9047 90.0455C44.0382 90.0909 44.1788 90.1136 44.3265 90.1136C44.4373 90.1136 44.5282 90.108 44.5993 90.0966C44.6703 90.0824 44.7271 90.071 44.7697 90.0625L44.9743 90.9659C44.9061 90.9915 44.8109 91.017 44.6887 91.0426C44.5666 91.071 44.4118 91.0852 44.2243 91.0852C43.9402 91.0852 43.6618 91.0241 43.389 90.902C43.1191 90.7798 42.8947 90.5938 42.7157 90.3438C42.5396 90.0938 42.4515 89.7784 42.4515 89.3977V82.8864ZM48.9565 91.1364C48.3429 91.1364 47.8145 90.9915 47.3713 90.7017C46.9281 90.4119 46.5872 90.0128 46.3485 89.5043C46.1099 88.9957 45.9906 88.4148 45.9906 87.7614C45.9906 87.0966 46.1127 86.5099 46.3571 86.0014C46.6042 85.4901 46.948 85.0909 47.3883 84.804C47.8315 84.5142 48.3485 84.3693 48.9395 84.3693C49.3997 84.3693 49.8145 84.4545 50.1838 84.625C50.5531 84.7955 50.8556 85.0341 51.0914 85.3409C51.3272 85.6477 51.4735 86.0057 51.5304 86.4148H50.5247C50.448 86.1165 50.2775 85.8523 50.0133 85.6222C49.752 85.3892 49.3997 85.2727 48.9565 85.2727C48.5645 85.2727 48.2207 85.375 47.9252 85.5795C47.6326 85.7812 47.4039 86.0668 47.2392 86.4361C47.0772 86.8026 46.9963 87.233 46.9963 87.7273C46.9963 88.233 47.0758 88.6733 47.2349 89.0483C47.3968 89.4233 47.6241 89.7145 47.9167 89.9219C48.2122 90.1293 48.5588 90.233 48.9565 90.233C49.2179 90.233 49.4551 90.1875 49.6681 90.0966C49.8812 90.0057 50.0616 89.875 50.2093 89.7045C50.3571 89.5341 50.4622 89.3295 50.5247 89.0909H51.5304C51.4735 89.4773 51.3329 89.8253 51.1085 90.1349C50.8869 90.4418 50.5929 90.6861 50.2264 90.8679C49.8627 91.0469 49.4395 91.1364 48.9565 91.1364ZM54.0062 87.0625V91H53.0005V82.2727H54.0062V85.4773H54.0914C54.2449 85.1392 54.475 84.8707 54.7818 84.6719C55.0914 84.4702 55.5034 84.3693 56.0176 84.3693C56.4636 84.3693 56.8542 84.4588 57.1895 84.6378C57.5247 84.8139 57.7846 85.0852 57.9693 85.4517C58.1568 85.8153 58.2505 86.2784 58.2505 86.8409V91H57.2449V86.9091C57.2449 86.3892 57.1099 85.9872 56.84 85.7031C56.573 85.4162 56.2022 85.2727 55.7278 85.2727C55.3983 85.2727 55.1028 85.3423 54.8414 85.4815C54.5829 85.6207 54.3784 85.8239 54.2278 86.0909C54.0801 86.358 54.0062 86.6818 54.0062 87.0625ZM60.0904 91V84.4545H61.0961V91H60.0904ZM60.6017 83.3636C60.4057 83.3636 60.2367 83.2969 60.0946 83.1634C59.9554 83.0298 59.8858 82.8693 59.8858 82.6818C59.8858 82.4943 59.9554 82.3338 60.0946 82.2003C60.2367 82.0668 60.4057 82 60.6017 82C60.7978 82 60.9654 82.0668 61.1046 82.2003C61.2466 82.3338 61.3176 82.4943 61.3176 82.6818C61.3176 82.8693 61.2466 83.0298 61.1046 83.1634C60.9654 83.2969 60.7978 83.3636 60.6017 83.3636ZM63.9437 87.0625V91H62.938V84.4545H63.9096V85.4773H63.9949C64.1483 85.1449 64.3812 84.8778 64.6937 84.6761C65.0062 84.4716 65.4096 84.3693 65.9039 84.3693C66.3471 84.3693 66.7349 84.4602 67.0673 84.642C67.3997 84.821 67.6582 85.0938 67.8429 85.4602C68.0275 85.8239 68.1199 86.2841 68.1199 86.8409V91H67.1142V86.9091C67.1142 86.3949 66.9806 85.9943 66.7136 85.7074C66.4466 85.4176 66.0801 85.2727 65.6142 85.2727C65.2931 85.2727 65.0062 85.3423 64.7534 85.4815C64.5034 85.6207 64.3059 85.8239 64.161 86.0909C64.0162 86.358 63.9437 86.6818 63.9437 87.0625ZM72.5996 93.5909C72.1138 93.5909 71.6962 93.5284 71.3468 93.4034C70.9973 93.2812 70.7061 93.1193 70.4732 92.9176C70.2431 92.7188 70.0598 92.5057 69.9235 92.2784L70.7246 91.7159C70.8155 91.8352 70.9306 91.9716 71.0698 92.125C71.209 92.2812 71.3993 92.4162 71.6408 92.5298C71.8851 92.6463 72.2047 92.7045 72.5996 92.7045C73.128 92.7045 73.5641 92.5767 73.9078 92.321C74.2516 92.0653 74.4235 91.6648 74.4235 91.1193V89.7898H74.3382C74.2644 89.9091 74.1593 90.0568 74.0229 90.233C73.8894 90.4062 73.6962 90.5611 73.4434 90.6974C73.1934 90.831 72.8553 90.8977 72.4292 90.8977C71.9007 90.8977 71.4263 90.7727 71.0059 90.5227C70.5882 90.2727 70.2573 89.9091 70.013 89.4318C69.7715 88.9545 69.6507 88.375 69.6507 87.6932C69.6507 87.0227 69.7686 86.4389 70.0044 85.9418C70.2402 85.4418 70.5684 85.0554 70.9888 84.7827C71.4093 84.5071 71.8951 84.3693 72.4462 84.3693C72.8723 84.3693 73.2104 84.4403 73.4604 84.5824C73.7132 84.7216 73.9064 84.8807 74.04 85.0597C74.1763 85.2358 74.2814 85.3807 74.3553 85.4943H74.4576V84.4545H75.4292V91.1875C75.4292 91.75 75.3013 92.2074 75.0456 92.5597C74.7928 92.9148 74.4519 93.1747 74.0229 93.3395C73.5968 93.5071 73.1223 93.5909 72.5996 93.5909ZM72.5655 89.9943C72.9689 89.9943 73.3098 89.902 73.5882 89.7173C73.8667 89.5327 74.0783 89.267 74.2232 88.9205C74.3681 88.5739 74.4405 88.1591 74.4405 87.6761C74.4405 87.2045 74.3695 86.7884 74.2275 86.4276C74.0854 86.0668 73.8752 85.7841 73.5968 85.5795C73.3184 85.375 72.9746 85.2727 72.5655 85.2727C72.1394 85.2727 71.7843 85.3807 71.5002 85.5966C71.2189 85.8125 71.0073 86.1023 70.8652 86.4659C70.726 86.8295 70.6564 87.233 70.6564 87.6761C70.6564 88.1307 70.7275 88.5327 70.8695 88.8821C71.0144 89.2287 71.2275 89.5014 71.5087 89.7003C71.7928 89.8963 72.1451 89.9943 72.5655 89.9943Z" fill="#292D32"/>
<defs>
<clipPath id="clip0_74_5857">
<rect width="100" height="75" rx="3" fill="white"/>
</clipPath>
<clipPath id="clip1_74_5857">
<rect width="76" height="8" fill="white" transform="translate(12 22)"/>
</clipPath>
<clipPath id="clip2_74_5857">
<rect width="71" height="8" fill="white" transform="translate(12 38)"/>
</clipPath>
<clipPath id="clip3_74_5857">
<rect width="71" height="8" fill="white" transform="translate(12 54)"/>
</clipPath>
</defs>
</svg>
