<svg width="100" height="94" viewBox="0 0 100 94" fill="none" xmlns="http://www.w3.org/2000/svg">
<g clip-path="url(#clip0_74_5770)">
<rect width="100" height="75" rx="3" fill="white"/>
<rect x="0.5" y="0.5" width="99" height="8" fill="#223368"/>
<rect x="0.5" y="0.5" width="99" height="8" stroke="#292D32"/>
<path d="M20.9775 29.5C25.1196 29.5 28.4775 26.1421 28.4775 22C28.4775 17.8579 25.1196 14.5 20.9775 14.5C16.8354 14.5 13.4775 17.8579 13.4775 22C13.4775 26.1421 16.8354 29.5 20.9775 29.5Z" stroke="#292D32" stroke-width="1.5" stroke-linecap="round" stroke-linejoin="round"/>
<line x1="34" y1="19.5" x2="78" y2="19.5" stroke="#292D32"/>
<line x1="34" y1="23.5" x2="88" y2="23.5" stroke="#292D32"/>
<path d="M20.9775 49.5C25.1196 49.5 28.4775 46.1421 28.4775 42C28.4775 37.8579 25.1196 34.5 20.9775 34.5C16.8354 34.5 13.4775 37.8579 13.4775 42C13.4775 46.1421 16.8354 49.5 20.9775 49.5Z" stroke="#292D32" stroke-width="1.5" stroke-linecap="round" stroke-linejoin="round"/>
<path d="M21 46.5C23.4853 46.5 25.5 44.4853 25.5 42C25.5 39.5147 23.4853 37.5 21 37.5C18.5147 37.5 16.5 39.5147 16.5 42C16.5 44.4853 18.5147 46.5 21 46.5Z" fill="#223368" stroke="#223368" stroke-width="1.5" stroke-miterlimit="10" stroke-linecap="round" stroke-linejoin="round"/>
<line x1="34" y1="37.5" x2="48" y2="37.5" stroke="#292D32"/>
<line x1="34" y1="41.5" x2="88" y2="41.5" stroke="#292D32"/>
<line x1="34" y1="45.5" x2="58" y2="45.5" stroke="#292D32"/>
<path d="M20.9775 69.5C25.1196 69.5 28.4775 66.1421 28.4775 62C28.4775 57.8579 25.1196 54.5 20.9775 54.5C16.8354 54.5 13.4775 57.8579 13.4775 62C13.4775 66.1421 16.8354 69.5 20.9775 69.5Z" stroke="#292D32" stroke-width="1.5" stroke-linecap="round" stroke-linejoin="round"/>
<line x1="34" y1="59.5" x2="88" y2="59.5" stroke="#292D32"/>
<line x1="34" y1="63.5" x2="68" y2="63.5" stroke="#292D32"/>
</g>
<rect x="0.5" y="0.5" width="99" height="74" rx="2.5" stroke="#292D32"/>
<path d="M6.11541 82.2727H7.37678L10.3427 89.517H10.445L13.4109 82.2727H14.6722V91H13.6836V84.3693H13.5984L10.8711 91H9.91655L7.18928 84.3693H7.10405V91H6.11541V82.2727ZM20.7798 88.3239V84.4545H21.7855V91H20.7798V89.892H20.7116C20.5582 90.2244 20.3196 90.5071 19.9957 90.7401C19.6719 90.9702 19.2628 91.0852 18.7685 91.0852C18.3594 91.0852 17.9957 90.9957 17.6776 90.8168C17.3594 90.6349 17.1094 90.3622 16.9276 89.9986C16.7457 89.6321 16.6548 89.1705 16.6548 88.6136V84.4545H17.6605V88.5455C17.6605 89.0227 17.794 89.4034 18.0611 89.6875C18.331 89.9716 18.6747 90.1136 19.0923 90.1136C19.3423 90.1136 19.5966 90.0497 19.8551 89.9219C20.1165 89.794 20.3352 89.598 20.5114 89.3338C20.6903 89.0696 20.7798 88.733 20.7798 88.3239ZM24.6332 82.2727V91H23.6275V82.2727H24.6332ZM29.3217 84.4545V85.3068H25.9297V84.4545H29.3217ZM26.9183 82.8864H27.924V89.125C27.924 89.4091 27.9652 89.6222 28.0476 89.7642C28.1328 89.9034 28.2408 89.9972 28.3714 90.0455C28.505 90.0909 28.6456 90.1136 28.7933 90.1136C28.9041 90.1136 28.995 90.108 29.0661 90.0966C29.1371 90.0824 29.1939 90.071 29.2365 90.0625L29.4411 90.9659C29.3729 90.9915 29.2777 91.017 29.1555 91.0426C29.0334 91.071 28.8786 91.0852 28.6911 91.0852C28.407 91.0852 28.1286 91.0241 27.8558 90.902C27.5859 90.7798 27.3615 90.5938 27.1825 90.3438C27.0064 90.0938 26.9183 89.7784 26.9183 89.3977V82.8864ZM30.8345 91V84.4545H31.8402V91H30.8345ZM31.3459 83.3636C31.1499 83.3636 30.9808 83.2969 30.8388 83.1634C30.6996 83.0298 30.63 82.8693 30.63 82.6818C30.63 82.4943 30.6996 82.3338 30.8388 82.2003C30.9808 82.0668 31.1499 82 31.3459 82C31.5419 82 31.7095 82.0668 31.8487 82.2003C31.9908 82.3338 32.0618 82.4943 32.0618 82.6818C32.0618 82.8693 31.9908 83.0298 31.8487 83.1634C31.7095 83.2969 31.5419 83.3636 31.3459 83.3636ZM33.6822 93.4545V84.4545H34.6538V85.4943H34.7731C34.8469 85.3807 34.9492 85.2358 35.0799 85.0597C35.2134 84.8807 35.4038 84.7216 35.6509 84.5824C35.9009 84.4403 36.239 84.3693 36.6651 84.3693C37.2163 84.3693 37.7021 84.5071 38.1225 84.7827C38.543 85.0582 38.8711 85.4489 39.1069 85.9545C39.3427 86.4602 39.4606 87.0568 39.4606 87.7443C39.4606 88.4375 39.3427 89.0384 39.1069 89.5469C38.8711 90.0526 38.5444 90.4446 38.1268 90.723C37.7092 90.9986 37.2276 91.1364 36.6822 91.1364C36.2617 91.1364 35.9251 91.0668 35.6722 90.9276C35.4194 90.7855 35.2248 90.625 35.0884 90.446C34.9521 90.2642 34.8469 90.1136 34.7731 89.9943H34.6879V93.4545H33.6822ZM34.6708 87.7273C34.6708 88.2216 34.7433 88.6577 34.8881 89.0355C35.033 89.4105 35.2447 89.7045 35.5231 89.9176C35.8015 90.1278 36.1424 90.233 36.5458 90.233C36.9663 90.233 37.3171 90.1222 37.5984 89.9006C37.8825 89.6761 38.0955 89.375 38.2376 88.9972C38.3825 88.6165 38.4549 88.1932 38.4549 87.7273C38.4549 87.267 38.3839 86.8523 38.2418 86.483C38.1026 86.1108 37.891 85.8168 37.6069 85.6009C37.3256 85.3821 36.9719 85.2727 36.5458 85.2727C36.1367 85.2727 35.793 85.3764 35.5146 85.5838C35.2362 85.7884 35.0259 86.0753 34.8839 86.4446C34.7418 86.8111 34.6708 87.2386 34.6708 87.7273ZM42.0004 82.2727V91H40.9947V82.2727H42.0004ZM46.5866 91.1364C45.956 91.1364 45.4119 90.9972 44.9545 90.7188C44.5 90.4375 44.1491 90.0455 43.902 89.5426C43.6577 89.0369 43.5355 88.4489 43.5355 87.7784C43.5355 87.108 43.6577 86.517 43.902 86.0057C44.1491 85.4915 44.4929 85.0909 44.9332 84.804C45.3764 84.5142 45.8935 84.3693 46.4844 84.3693C46.8253 84.3693 47.1619 84.4261 47.4943 84.5398C47.8267 84.6534 48.1293 84.8381 48.402 85.0938C48.6747 85.3466 48.892 85.6818 49.054 86.0994C49.2159 86.517 49.2969 87.0312 49.2969 87.642V88.0682H44.2514V87.1989H48.2741C48.2741 86.8295 48.2003 86.5 48.0526 86.2102C47.9077 85.9205 47.7003 85.6918 47.4304 85.5241C47.1634 85.3565 46.848 85.2727 46.4844 85.2727C46.0838 85.2727 45.7372 85.3722 45.4446 85.571C45.1548 85.767 44.9318 86.0227 44.7756 86.3381C44.6193 86.6534 44.5412 86.9915 44.5412 87.3523V87.9318C44.5412 88.4261 44.6264 88.8452 44.7969 89.1889C44.9702 89.5298 45.2102 89.7898 45.517 89.9688C45.8239 90.1449 46.1804 90.233 46.5866 90.233C46.8509 90.233 47.0895 90.196 47.3026 90.1222C47.5185 90.0455 47.7045 89.9318 47.8608 89.7812C48.017 89.6278 48.1378 89.4375 48.223 89.2102L49.1946 89.483C49.0923 89.8125 48.9205 90.1023 48.679 90.3523C48.4375 90.5994 48.1392 90.7926 47.7841 90.9318C47.429 91.0682 47.0298 91.1364 46.5866 91.1364ZM54.5767 86.7898V87.7273H50.7585V86.7898H54.5767ZM63.5053 85H62.4485C62.386 84.696 62.2766 84.429 62.1204 84.1989C61.967 83.9688 61.7795 83.7756 61.5579 83.6193C61.3391 83.4602 61.0962 83.3409 60.8292 83.2614C60.5621 83.1818 60.2837 83.142 59.994 83.142C59.4656 83.142 58.9869 83.2756 58.5579 83.5426C58.1317 83.8097 57.7923 84.2031 57.5394 84.723C57.2894 85.2429 57.1644 85.8807 57.1644 86.6364C57.1644 87.392 57.2894 88.0298 57.5394 88.5497C57.7923 89.0696 58.1317 89.4631 58.5579 89.7301C58.9869 89.9972 59.4656 90.1307 59.994 90.1307C60.2837 90.1307 60.5621 90.0909 60.8292 90.0114C61.0962 89.9318 61.3391 89.8139 61.5579 89.6577C61.7795 89.4986 61.967 89.304 62.1204 89.0739C62.2766 88.8409 62.386 88.5739 62.4485 88.2727H63.5053C63.4258 88.7187 63.2809 89.1179 63.0707 89.4702C62.8604 89.8224 62.5991 90.1222 62.2866 90.3693C61.9741 90.6136 61.6232 90.7997 61.234 90.9276C60.8477 91.0554 60.4343 91.1193 59.994 91.1193C59.2496 91.1193 58.5877 90.9375 58.0082 90.5739C57.4286 90.2102 56.9727 89.6932 56.6403 89.0227C56.3079 88.3523 56.1417 87.5568 56.1417 86.6364C56.1417 85.7159 56.3079 84.9205 56.6403 84.25C56.9727 83.5795 57.4286 83.0625 58.0082 82.6989C58.5877 82.3352 59.2496 82.1534 59.994 82.1534C60.4343 82.1534 60.8477 82.2173 61.234 82.3452C61.6232 82.473 61.9741 82.6605 62.2866 82.9077C62.5991 83.152 62.8604 83.4503 63.0707 83.8026C63.2809 84.152 63.4258 84.5511 63.5053 85ZM66.0824 87.0625V91H65.0767V82.2727H66.0824V85.4773H66.1676C66.321 85.1392 66.5511 84.8707 66.858 84.6719C67.1676 84.4702 67.5795 84.3693 68.0938 84.3693C68.5398 84.3693 68.9304 84.4588 69.2656 84.6378C69.6009 84.8139 69.8608 85.0852 70.0455 85.4517C70.233 85.8153 70.3267 86.2784 70.3267 86.8409V91H69.321V86.9091C69.321 86.3892 69.1861 85.9872 68.9162 85.7031C68.6491 85.4162 68.2784 85.2727 67.804 85.2727C67.4744 85.2727 67.179 85.3423 66.9176 85.4815C66.6591 85.6207 66.4545 85.8239 66.304 86.0909C66.1563 86.358 66.0824 86.6818 66.0824 87.0625ZM74.8256 91.1364C74.2347 91.1364 73.7163 90.9957 73.2702 90.7145C72.8271 90.4332 72.4805 90.0398 72.2305 89.5341C71.9833 89.0284 71.8597 88.4375 71.8597 87.7614C71.8597 87.0795 71.9833 86.4844 72.2305 85.9759C72.4805 85.4673 72.8271 85.0724 73.2702 84.7912C73.7163 84.5099 74.2347 84.3693 74.8256 84.3693C75.4165 84.3693 75.9336 84.5099 76.3768 84.7912C76.8228 85.0724 77.1694 85.4673 77.4165 85.9759C77.6665 86.4844 77.7915 87.0795 77.7915 87.7614C77.7915 88.4375 77.6665 89.0284 77.4165 89.5341C77.1694 90.0398 76.8228 90.4332 76.3768 90.7145C75.9336 90.9957 75.4165 91.1364 74.8256 91.1364ZM74.8256 90.233C75.2745 90.233 75.6438 90.1179 75.9336 89.8878C76.2234 89.6577 76.4379 89.3551 76.5771 88.9801C76.7163 88.6051 76.7859 88.1989 76.7859 87.7614C76.7859 87.3239 76.7163 86.9162 76.5771 86.5384C76.4379 86.1605 76.2234 85.8551 75.9336 85.6222C75.6438 85.3892 75.2745 85.2727 74.8256 85.2727C74.3768 85.2727 74.0075 85.3892 73.7177 85.6222C73.4279 85.8551 73.2134 86.1605 73.0742 86.5384C72.935 86.9162 72.8654 87.3239 72.8654 87.7614C72.8654 88.1989 72.935 88.6051 73.0742 88.9801C73.2134 89.3551 73.4279 89.6577 73.7177 89.8878C74.0075 90.1179 74.3768 90.233 74.8256 90.233ZM79.3267 91V84.4545H80.3324V91H79.3267ZM79.8381 83.3636C79.642 83.3636 79.473 83.2969 79.331 83.1634C79.1918 83.0298 79.1222 82.8693 79.1222 82.6818C79.1222 82.4943 79.1918 82.3338 79.331 82.2003C79.473 82.0668 79.642 82 79.8381 82C80.0341 82 80.2017 82.0668 80.3409 82.2003C80.483 82.3338 80.554 82.4943 80.554 82.6818C80.554 82.8693 80.483 83.0298 80.3409 83.1634C80.2017 83.2969 80.0341 83.3636 79.8381 83.3636ZM84.8335 91.1364C84.2198 91.1364 83.6914 90.9915 83.2482 90.7017C82.805 90.4119 82.4641 90.0128 82.2255 89.5043C81.9869 88.9957 81.8675 88.4148 81.8675 87.7614C81.8675 87.0966 81.9897 86.5099 82.234 86.0014C82.4812 85.4901 82.8249 85.0909 83.2653 84.804C83.7085 84.5142 84.2255 84.3693 84.8164 84.3693C85.2766 84.3693 85.6914 84.4545 86.0607 84.625C86.43 84.7955 86.7326 85.0341 86.9684 85.3409C87.2042 85.6477 87.3505 86.0057 87.4073 86.4148H86.4016C86.3249 86.1165 86.1545 85.8523 85.8903 85.6222C85.6289 85.3892 85.2766 85.2727 84.8335 85.2727C84.4414 85.2727 84.0977 85.375 83.8022 85.5795C83.5096 85.7812 83.2809 86.0668 83.1161 86.4361C82.9542 86.8026 82.8732 87.233 82.8732 87.7273C82.8732 88.233 82.9528 88.6733 83.1119 89.0483C83.2738 89.4233 83.5011 89.7145 83.7937 89.9219C84.0891 90.1293 84.4357 90.233 84.8335 90.233C85.0948 90.233 85.332 90.1875 85.5451 90.0966C85.7582 90.0057 85.9386 89.875 86.0863 89.7045C86.234 89.5341 86.3391 89.3295 86.4016 89.0909H87.4073C87.3505 89.4773 87.2099 89.8253 86.9854 90.1349C86.7638 90.4418 86.4698 90.6861 86.1033 90.8679C85.7397 91.0469 85.3164 91.1364 84.8335 91.1364ZM91.6218 91.1364C90.9911 91.1364 90.4471 90.9972 89.9897 90.7188C89.5352 90.4375 89.1843 90.0455 88.9371 89.5426C88.6928 89.0369 88.5707 88.4489 88.5707 87.7784C88.5707 87.108 88.6928 86.517 88.9371 86.0057C89.1843 85.4915 89.5281 85.0909 89.9684 84.804C90.4116 84.5142 90.9286 84.3693 91.5195 84.3693C91.8604 84.3693 92.1971 84.4261 92.5295 84.5398C92.8619 84.6534 93.1644 84.8381 93.4371 85.0938C93.7099 85.3466 93.9272 85.6818 94.0891 86.0994C94.2511 86.517 94.332 87.0312 94.332 87.642V88.0682H89.2866V87.1989H93.3093C93.3093 86.8295 93.2354 86.5 93.0877 86.2102C92.9428 85.9205 92.7354 85.6918 92.4656 85.5241C92.1985 85.3565 91.8832 85.2727 91.5195 85.2727C91.119 85.2727 90.7724 85.3722 90.4798 85.571C90.19 85.767 89.967 86.0227 89.8107 86.3381C89.6545 86.6534 89.5763 86.9915 89.5763 87.3523V87.9318C89.5763 88.4261 89.6616 88.8452 89.832 89.1889C90.0053 89.5298 90.2454 89.7898 90.5522 89.9688C90.859 90.1449 91.2156 90.233 91.6218 90.233C91.886 90.233 92.1246 90.196 92.3377 90.1222C92.5536 90.0455 92.7397 89.9318 92.896 89.7812C93.0522 89.6278 93.1729 89.4375 93.2582 89.2102L94.2298 89.483C94.1275 89.8125 93.9556 90.1023 93.7141 90.3523C93.4727 90.5994 93.1744 90.7926 92.8192 90.9318C92.4641 91.0682 92.065 91.1364 91.6218 91.1364Z" fill="#292D32"/>
<defs>
<clipPath id="clip0_74_5770">
<rect width="100" height="75" rx="3" fill="white"/>
</clipPath>
</defs>
</svg>
