<svg width="103" height="94" viewBox="0 0 103 94" fill="none" xmlns="http://www.w3.org/2000/svg">
<g clip-path="url(#clip0_74_5791)">
<rect x="1" width="100" height="75" rx="3" fill="white"/>
<rect x="1.5" y="0.5" width="99" height="8" fill="#223368"/>
<rect x="1.5" y="0.5" width="99" height="8" stroke="#292D32"/>
<path d="M19.75 29.5H24.25C28 29.5 29.5 28 29.5 24.25V19.75C29.5 16 28 14.5 24.25 14.5H19.75C16 14.5 14.5 16 14.5 19.75V24.25C14.5 28 16 29.5 19.75 29.5Z" fill="#223368" stroke="#292D32" stroke-width="1.5" stroke-linecap="round" stroke-linejoin="round"/>
<path d="M18.8125 21.9999L20.935 24.1224L25.1875 19.8774" stroke="white" stroke-width="1.5" stroke-linecap="round" stroke-linejoin="round"/>
<line x1="35" y1="19.5" x2="79" y2="19.5" stroke="#292D32"/>
<line x1="35" y1="23.5" x2="89" y2="23.5" stroke="#292D32"/>
<path d="M19.75 49.5H24.25C28 49.5 29.5 48 29.5 44.25V39.75C29.5 36 28 34.5 24.25 34.5H19.75C16 34.5 14.5 36 14.5 39.75V44.25C14.5 48 16 49.5 19.75 49.5Z" stroke="#292D32" stroke-width="1.5" stroke-linecap="round" stroke-linejoin="round"/>
<line x1="35" y1="37.5" x2="49" y2="37.5" stroke="#292D32"/>
<line x1="35" y1="41.5" x2="89" y2="41.5" stroke="#292D32"/>
<line x1="35" y1="45.5" x2="59" y2="45.5" stroke="#292D32"/>
<path d="M19.75 69.5H24.25C28 69.5 29.5 68 29.5 64.25V59.75C29.5 56 28 54.5 24.25 54.5H19.75C16 54.5 14.5 56 14.5 59.75V64.25C14.5 68 16 69.5 19.75 69.5Z" fill="#223368" stroke="#292D32" stroke-width="1.5" stroke-linecap="round" stroke-linejoin="round"/>
<path d="M18.8125 61.9999L20.935 64.1224L25.1875 59.8774" stroke="white" stroke-width="1.5" stroke-linecap="round" stroke-linejoin="round"/>
<line x1="35" y1="59.5" x2="89" y2="59.5" stroke="#292D32"/>
<line x1="35" y1="63.5" x2="69" y2="63.5" stroke="#292D32"/>
</g>
<rect x="1.5" y="0.5" width="99" height="74" rx="2.5" stroke="#292D32"/>
<path d="M0.142756 82.2727H1.40412L4.37003 89.517H4.4723L7.43821 82.2727H8.69957V91H7.71094V84.3693H7.62571L4.89844 91H3.94389L1.21662 84.3693H1.13139V91H0.142756V82.2727ZM14.8072 88.3239V84.4545H15.8129V91H14.8072V89.892H14.739C14.5856 90.2244 14.3469 90.5071 14.0231 90.7401C13.6992 90.9702 13.2901 91.0852 12.7958 91.0852C12.3867 91.0852 12.0231 90.9957 11.7049 90.8168C11.3867 90.6349 11.1367 90.3622 10.9549 89.9986C10.7731 89.6321 10.6822 89.1705 10.6822 88.6136V84.4545H11.6879V88.5455C11.6879 89.0227 11.8214 89.4034 12.0884 89.6875C12.3583 89.9716 12.7021 90.1136 13.1197 90.1136C13.3697 90.1136 13.6239 90.0497 13.8825 89.9219C14.1438 89.794 14.3626 89.598 14.5387 89.3338C14.7177 89.0696 14.8072 88.733 14.8072 88.3239ZM18.6605 82.2727V91H17.6548V82.2727H18.6605ZM23.3491 84.4545V85.3068H19.957V84.4545H23.3491ZM20.9457 82.8864H21.9513V89.125C21.9513 89.4091 21.9925 89.6222 22.0749 89.7642C22.1602 89.9034 22.2681 89.9972 22.3988 90.0455C22.5323 90.0909 22.6729 90.1136 22.8207 90.1136C22.9315 90.1136 23.0224 90.108 23.0934 90.0966C23.1644 90.0824 23.2212 90.071 23.2638 90.0625L23.4684 90.9659C23.4002 90.9915 23.305 91.017 23.1829 91.0426C23.0607 91.071 22.9059 91.0852 22.7184 91.0852C22.4343 91.0852 22.1559 91.0241 21.8832 90.902C21.6133 90.7798 21.3888 90.5938 21.2099 90.3438C21.0337 90.0938 20.9457 89.7784 20.9457 89.3977V82.8864ZM24.8619 91V84.4545H25.8675V91H24.8619ZM25.3732 83.3636C25.1772 83.3636 25.0082 83.2969 24.8661 83.1634C24.7269 83.0298 24.6573 82.8693 24.6573 82.6818C24.6573 82.4943 24.7269 82.3338 24.8661 82.2003C25.0082 82.0668 25.1772 82 25.3732 82C25.5692 82 25.7369 82.0668 25.8761 82.2003C26.0181 82.3338 26.0891 82.4943 26.0891 82.6818C26.0891 82.8693 26.0181 83.0298 25.8761 83.1634C25.7369 83.2969 25.5692 83.3636 25.3732 83.3636ZM27.7095 93.4545V84.4545H28.6811V85.4943H28.8004C28.8743 85.3807 28.9766 85.2358 29.1072 85.0597C29.2408 84.8807 29.4311 84.7216 29.6783 84.5824C29.9283 84.4403 30.2663 84.3693 30.6925 84.3693C31.2436 84.3693 31.7294 84.5071 32.1499 84.7827C32.5703 85.0582 32.8984 85.4489 33.1342 85.9545C33.37 86.4602 33.4879 87.0568 33.4879 87.7443C33.4879 88.4375 33.37 89.0384 33.1342 89.5469C32.8984 90.0526 32.5717 90.4446 32.1541 90.723C31.7365 90.9986 31.255 91.1364 30.7095 91.1364C30.2891 91.1364 29.9524 91.0668 29.6996 90.9276C29.4467 90.7855 29.2521 90.625 29.1158 90.446C28.9794 90.2642 28.8743 90.1136 28.8004 89.9943H28.7152V93.4545H27.7095ZM28.6982 87.7273C28.6982 88.2216 28.7706 88.6577 28.9155 89.0355C29.0604 89.4105 29.272 89.7045 29.5504 89.9176C29.8288 90.1278 30.1697 90.233 30.5732 90.233C30.9936 90.233 31.3445 90.1222 31.6257 89.9006C31.9098 89.6761 32.1229 89.375 32.2649 88.9972C32.4098 88.6165 32.4822 88.1932 32.4822 87.7273C32.4822 87.267 32.4112 86.8523 32.2692 86.483C32.13 86.1108 31.9183 85.8168 31.6342 85.6009C31.353 85.3821 30.9993 85.2727 30.5732 85.2727C30.1641 85.2727 29.8203 85.3764 29.5419 85.5838C29.2635 85.7884 29.0533 86.0753 28.9112 86.4446C28.7692 86.8111 28.6982 87.2386 28.6982 87.7273ZM36.0277 82.2727V91H35.022V82.2727H36.0277ZM40.614 91.1364C39.9833 91.1364 39.4393 90.9972 38.9819 90.7188C38.5273 90.4375 38.1765 90.0455 37.9293 89.5426C37.685 89.0369 37.5629 88.4489 37.5629 87.7784C37.5629 87.108 37.685 86.517 37.9293 86.0057C38.1765 85.4915 38.5202 85.0909 38.9606 84.804C39.4038 84.5142 39.9208 84.3693 40.5117 84.3693C40.8526 84.3693 41.1893 84.4261 41.5217 84.5398C41.854 84.6534 42.1566 84.8381 42.4293 85.0938C42.7021 85.3466 42.9194 85.6818 43.0813 86.0994C43.2433 86.517 43.3242 87.0312 43.3242 87.642V88.0682H38.2788V87.1989H42.3015C42.3015 86.8295 42.2276 86.5 42.0799 86.2102C41.935 85.9205 41.7276 85.6918 41.4577 85.5241C41.1907 85.3565 40.8754 85.2727 40.5117 85.2727C40.1112 85.2727 39.7646 85.3722 39.4719 85.571C39.1822 85.767 38.9592 86.0227 38.8029 86.3381C38.6467 86.6534 38.5685 86.9915 38.5685 87.3523V87.9318C38.5685 88.4261 38.6538 88.8452 38.8242 89.1889C38.9975 89.5298 39.2376 89.7898 39.5444 89.9688C39.8512 90.1449 40.2077 90.233 40.614 90.233C40.8782 90.233 41.1168 90.196 41.3299 90.1222C41.5458 90.0455 41.7319 89.9318 41.8881 89.7812C42.0444 89.6278 42.1651 89.4375 42.2504 89.2102L43.2219 89.483C43.1197 89.8125 42.9478 90.1023 42.7063 90.3523C42.4648 90.5994 42.1665 90.7926 41.8114 90.9318C41.4563 91.0682 41.0572 91.1364 40.614 91.1364ZM48.3654 91V82.2727H51.3143C51.9961 82.2727 52.5558 82.3892 52.9933 82.6222C53.4308 82.8523 53.7546 83.169 53.9648 83.5724C54.1751 83.9759 54.2802 84.4347 54.2802 84.9489C54.2802 85.4631 54.1751 85.919 53.9648 86.3168C53.7546 86.7145 53.4322 87.027 52.9975 87.2543C52.5629 87.4787 52.0075 87.5909 51.3313 87.5909H48.945V86.6364H51.2972C51.7631 86.6364 52.1381 86.5682 52.4222 86.4318C52.7092 86.2955 52.9165 86.1023 53.0444 85.8523C53.1751 85.5994 53.2404 85.2983 53.2404 84.9489C53.2404 84.5994 53.1751 84.294 53.0444 84.0327C52.9137 83.7713 52.7049 83.5696 52.418 83.4276C52.131 83.2827 51.7518 83.2102 51.2802 83.2102H49.4222V91H48.3654ZM52.4734 87.0795L54.6211 91H53.3938L51.2802 87.0795H52.4734ZM58.5788 91.1364C57.9482 91.1364 57.4041 90.9972 56.9467 90.7188C56.4922 90.4375 56.1413 90.0455 55.8942 89.5426C55.6499 89.0369 55.5277 88.4489 55.5277 87.7784C55.5277 87.108 55.6499 86.517 55.8942 86.0057C56.1413 85.4915 56.4851 85.0909 56.9254 84.804C57.3686 84.5142 57.8857 84.3693 58.4766 84.3693C58.8175 84.3693 59.1541 84.4261 59.4865 84.5398C59.8189 84.6534 60.1214 84.8381 60.3942 85.0938C60.6669 85.3466 60.8842 85.6818 61.0462 86.0994C61.2081 86.517 61.2891 87.0312 61.2891 87.642V88.0682H56.2436V87.1989H60.2663C60.2663 86.8295 60.1925 86.5 60.0447 86.2102C59.8999 85.9205 59.6925 85.6918 59.4226 85.5241C59.1555 85.3565 58.8402 85.2727 58.4766 85.2727C58.076 85.2727 57.7294 85.3722 57.4368 85.571C57.147 85.767 56.924 86.0227 56.7678 86.3381C56.6115 86.6534 56.5334 86.9915 56.5334 87.3523V87.9318C56.5334 88.4261 56.6186 88.8452 56.7891 89.1889C56.9624 89.5298 57.2024 89.7898 57.5092 89.9688C57.8161 90.1449 58.1726 90.233 58.5788 90.233C58.843 90.233 59.0817 90.196 59.2947 90.1222C59.5107 90.0455 59.6967 89.9318 59.853 89.7812C60.0092 89.6278 60.13 89.4375 60.2152 89.2102L61.1868 89.483C61.0845 89.8125 60.9126 90.1023 60.6712 90.3523C60.4297 90.5994 60.1314 90.7926 59.7763 90.9318C59.4212 91.0682 59.022 91.1364 58.5788 91.1364ZM67.4553 85.9205L66.5518 86.1761C66.495 86.0256 66.4112 85.8793 66.3004 85.7372C66.1925 85.5923 66.0447 85.473 65.8572 85.3793C65.6697 85.2855 65.4297 85.2386 65.1371 85.2386C64.7365 85.2386 64.4027 85.331 64.1357 85.5156C63.8714 85.6974 63.7393 85.929 63.7393 86.2102C63.7393 86.4602 63.8303 86.6577 64.0121 86.8026C64.1939 86.9474 64.478 87.0682 64.8643 87.1648L65.8359 87.4034C66.4212 87.5455 66.8572 87.7628 67.1442 88.0554C67.4311 88.3452 67.5746 88.7187 67.5746 89.1761C67.5746 89.5511 67.4666 89.8864 67.2507 90.1818C67.0376 90.4773 66.7393 90.7102 66.3558 90.8807C65.9723 91.0511 65.5263 91.1364 65.0178 91.1364C64.3501 91.1364 63.7976 90.9915 63.3601 90.7017C62.9226 90.4119 62.6456 89.9886 62.5291 89.4318L63.4837 89.1932C63.5746 89.5455 63.7464 89.8097 63.9993 89.9858C64.255 90.1619 64.5888 90.25 65.0007 90.25C65.4695 90.25 65.8416 90.1506 66.1172 89.9517C66.3956 89.75 66.5348 89.5085 66.5348 89.2273C66.5348 89 66.4553 88.8097 66.2962 88.6562C66.1371 88.5 65.8928 88.3835 65.5632 88.3068L64.4723 88.0511C63.8729 87.9091 63.4325 87.6889 63.1513 87.3906C62.8729 87.0895 62.7337 86.7131 62.7337 86.2614C62.7337 85.892 62.8374 85.5653 63.0447 85.2812C63.255 84.9972 63.5405 84.7741 63.9013 84.6122C64.2649 84.4503 64.6768 84.3693 65.1371 84.3693C65.7848 84.3693 66.2933 84.5114 66.6626 84.7955C67.0348 85.0795 67.299 85.4545 67.4553 85.9205ZM69.0884 93.4545V84.4545H70.06V85.4943H70.1793C70.2532 85.3807 70.3555 85.2358 70.4862 85.0597C70.6197 84.8807 70.81 84.7216 71.0572 84.5824C71.3072 84.4403 71.6452 84.3693 72.0714 84.3693C72.6225 84.3693 73.1083 84.5071 73.5288 84.7827C73.9492 85.0582 74.2773 85.4489 74.5131 85.9545C74.7489 86.4602 74.8668 87.0568 74.8668 87.7443C74.8668 88.4375 74.7489 89.0384 74.5131 89.5469C74.2773 90.0526 73.9506 90.4446 73.533 90.723C73.1154 90.9986 72.6339 91.1364 72.0884 91.1364C71.668 91.1364 71.3313 91.0668 71.0785 90.9276C70.8256 90.7855 70.631 90.625 70.4947 90.446C70.3583 90.2642 70.2532 90.1136 70.1793 89.9943H70.0941V93.4545H69.0884ZM70.0771 87.7273C70.0771 88.2216 70.1495 88.6577 70.2944 89.0355C70.4393 89.4105 70.6509 89.7045 70.9293 89.9176C71.2077 90.1278 71.5487 90.233 71.9521 90.233C72.3725 90.233 72.7234 90.1222 73.0046 89.9006C73.2887 89.6761 73.5018 89.375 73.6438 88.9972C73.7887 88.6165 73.8612 88.1932 73.8612 87.7273C73.8612 87.267 73.7901 86.8523 73.6481 86.483C73.5089 86.1108 73.2972 85.8168 73.0131 85.6009C72.7319 85.3821 72.3782 85.2727 71.9521 85.2727C71.543 85.2727 71.1992 85.3764 70.9208 85.5838C70.6424 85.7884 70.4322 86.0753 70.2901 86.4446C70.1481 86.8111 70.0771 87.2386 70.0771 87.7273ZM79.06 91.1364C78.4691 91.1364 77.9506 90.9957 77.5046 90.7145C77.0614 90.4332 76.7148 90.0398 76.4648 89.5341C76.2177 89.0284 76.0941 88.4375 76.0941 87.7614C76.0941 87.0795 76.2177 86.4844 76.4648 85.9759C76.7148 85.4673 77.0614 85.0724 77.5046 84.7912C77.9506 84.5099 78.4691 84.3693 79.06 84.3693C79.6509 84.3693 80.168 84.5099 80.6112 84.7912C81.0572 85.0724 81.4038 85.4673 81.6509 85.9759C81.9009 86.4844 82.0259 87.0795 82.0259 87.7614C82.0259 88.4375 81.9009 89.0284 81.6509 89.5341C81.4038 90.0398 81.0572 90.4332 80.6112 90.7145C80.168 90.9957 79.6509 91.1364 79.06 91.1364ZM79.06 90.233C79.5089 90.233 79.8782 90.1179 80.168 89.8878C80.4577 89.6577 80.6722 89.3551 80.8114 88.9801C80.9506 88.6051 81.0202 88.1989 81.0202 87.7614C81.0202 87.3239 80.9506 86.9162 80.8114 86.5384C80.6722 86.1605 80.4577 85.8551 80.168 85.6222C79.8782 85.3892 79.5089 85.2727 79.06 85.2727C78.6112 85.2727 78.2418 85.3892 77.9521 85.6222C77.6623 85.8551 77.4478 86.1605 77.3086 86.5384C77.1694 86.9162 77.0998 87.3239 77.0998 87.7614C77.0998 88.1989 77.1694 88.6051 77.3086 88.9801C77.4478 89.3551 77.6623 89.6577 77.9521 89.8878C78.2418 90.1179 78.6112 90.233 79.06 90.233ZM84.5668 87.0625V91H83.5611V84.4545H84.5327V85.4773H84.6179C84.7713 85.1449 85.0043 84.8778 85.3168 84.6761C85.6293 84.4716 86.0327 84.3693 86.527 84.3693C86.9702 84.3693 87.358 84.4602 87.6903 84.642C88.0227 84.821 88.2813 85.0938 88.4659 85.4602C88.6506 85.8239 88.7429 86.2841 88.7429 86.8409V91H87.7372V86.9091C87.7372 86.3949 87.6037 85.9943 87.3366 85.7074C87.0696 85.4176 86.7031 85.2727 86.2372 85.2727C85.9162 85.2727 85.6293 85.3423 85.3764 85.4815C85.1264 85.6207 84.929 85.8239 84.7841 86.0909C84.6392 86.358 84.5668 86.6818 84.5668 87.0625ZM95.217 85.9205L94.3136 86.1761C94.2567 86.0256 94.1729 85.8793 94.0621 85.7372C93.9542 85.5923 93.8065 85.473 93.619 85.3793C93.4315 85.2855 93.1914 85.2386 92.8988 85.2386C92.4982 85.2386 92.1644 85.331 91.8974 85.5156C91.6332 85.6974 91.5011 85.929 91.5011 86.2102C91.5011 86.4602 91.592 86.6577 91.7738 86.8026C91.9556 86.9474 92.2397 87.0682 92.6261 87.1648L93.5977 87.4034C94.1829 87.5455 94.619 87.7628 94.9059 88.0554C95.1928 88.3452 95.3363 88.7187 95.3363 89.1761C95.3363 89.5511 95.2283 89.8864 95.0124 90.1818C94.7994 90.4773 94.5011 90.7102 94.1175 90.8807C93.734 91.0511 93.288 91.1364 92.7795 91.1364C92.1119 91.1364 91.5593 90.9915 91.1218 90.7017C90.6843 90.4119 90.4073 89.9886 90.2908 89.4318L91.2454 89.1932C91.3363 89.5455 91.5082 89.8097 91.761 89.9858C92.0167 90.1619 92.3505 90.25 92.7624 90.25C93.2312 90.25 93.6033 90.1506 93.8789 89.9517C94.1573 89.75 94.2965 89.5085 94.2965 89.2273C94.2965 89 94.217 88.8097 94.0579 88.6562C93.8988 88.5 93.6545 88.3835 93.3249 88.3068L92.234 88.0511C91.6346 87.9091 91.1942 87.6889 90.913 87.3906C90.6346 87.0895 90.4954 86.7131 90.4954 86.2614C90.4954 85.892 90.5991 85.5653 90.8065 85.2812C91.0167 84.9972 91.3022 84.7741 91.663 84.6122C92.0266 84.4503 92.4386 84.3693 92.8988 84.3693C93.5465 84.3693 94.055 84.5114 94.4244 84.7955C94.7965 85.0795 95.0607 85.4545 95.217 85.9205ZM99.5945 91.1364C98.9638 91.1364 98.4197 90.9972 97.9624 90.7188C97.5078 90.4375 97.157 90.0455 96.9098 89.5426C96.6655 89.0369 96.5433 88.4489 96.5433 87.7784C96.5433 87.108 96.6655 86.517 96.9098 86.0057C97.157 85.4915 97.5007 85.0909 97.9411 84.804C98.3842 84.5142 98.9013 84.3693 99.4922 84.3693C99.8331 84.3693 100.17 84.4261 100.502 84.5398C100.835 84.6534 101.137 84.8381 101.41 85.0938C101.683 85.3466 101.9 85.6818 102.062 86.0994C102.224 86.517 102.305 87.0312 102.305 87.642V88.0682H97.2592V87.1989H101.282C101.282 86.8295 101.208 86.5 101.06 86.2102C100.915 85.9205 100.708 85.6918 100.438 85.5241C100.171 85.3565 99.8558 85.2727 99.4922 85.2727C99.0916 85.2727 98.745 85.3722 98.4524 85.571C98.1626 85.767 97.9396 86.0227 97.7834 86.3381C97.6271 86.6534 97.549 86.9915 97.549 87.3523V87.9318C97.549 88.4261 97.6342 88.8452 97.8047 89.1889C97.978 89.5298 98.218 89.7898 98.5249 89.9688C98.8317 90.1449 99.1882 90.233 99.5945 90.233C99.8587 90.233 100.097 90.196 100.31 90.1222C100.526 90.0455 100.712 89.9318 100.869 89.7812C101.025 89.6278 101.146 89.4375 101.231 89.2102L102.202 89.483C102.1 89.8125 101.928 90.1023 101.687 90.3523C101.445 90.5994 101.147 90.7926 100.792 90.9318C100.437 91.0682 100.038 91.1364 99.5945 91.1364Z" fill="#292D32"/>
<defs>
<clipPath id="clip0_74_5791">
<rect x="1" width="100" height="75" rx="3" fill="white"/>
</clipPath>
</defs>
</svg>
