<svg width="100" height="94" viewBox="0 0 100 94" fill="none" xmlns="http://www.w3.org/2000/svg">
<g clip-path="url(#clip0_74_5876)">
<rect width="100" height="75" rx="3" fill="white"/>
<rect x="0.5" y="0.5" width="99" height="8" fill="#223368"/>
<rect x="0.5" y="0.5" width="99" height="8" stroke="#292D32"/>
<rect x="20.2459" y="23.5" width="60.9676" height="7" rx="0.5" fill="#223368" fill-opacity="0.2"/>
<rect x="20.2459" y="23.5" width="60.9676" height="7" rx="0.5" stroke="#292D32"/>
<line x1="22.7459" y1="27" x2="66.7459" y2="27" stroke="#292D32"/>
<rect x="19.7459" y="39" width="61.9676" height="8" rx="1" fill="#223368" fill-opacity="0.2"/>
<rect x="22.1824" y="37.5" width="60.9676" height="7" rx="0.5" fill="#223368"/>
<rect x="22.1824" y="37.5" width="60.9676" height="7" rx="0.5" stroke="#292D32"/>
<line x1="24.6824" y1="41" x2="68.6824" y2="41" stroke="white"/>
<rect x="19.2777" y="53.5" width="60.9676" height="7" rx="0.5" fill="#223368" fill-opacity="0.2"/>
<rect x="19.2777" y="53.5" width="60.9676" height="7" rx="0.5" stroke="#292D32"/>
<line x1="21.7777" y1="57" x2="65.7777" y2="57" stroke="#292D32"/>
<path d="M14.6477 24.1818V30H13.9432V24.9205H13.9091L12.4886 25.8636V25.1477L13.9432 24.1818H14.6477Z" fill="#292D32"/>
<path d="M12.6023 45V44.4886L14.5227 42.3864C14.7481 42.1402 14.9337 41.9261 15.0795 41.7443C15.2254 41.5606 15.3333 41.3883 15.4034 41.2273C15.4754 41.0644 15.5114 40.8939 15.5114 40.7159C15.5114 40.5114 15.4621 40.3343 15.3636 40.1847C15.267 40.035 15.1345 39.9195 14.9659 39.8381C14.7973 39.7566 14.608 39.7159 14.3977 39.7159C14.1742 39.7159 13.9792 39.7623 13.8125 39.8551C13.6477 39.946 13.5199 40.0739 13.429 40.2386C13.34 40.4034 13.2955 40.5966 13.2955 40.8182H12.625C12.625 40.4773 12.7036 40.178 12.8608 39.9205C13.018 39.6629 13.232 39.4621 13.5028 39.3182C13.7756 39.1742 14.0814 39.1023 14.4205 39.1023C14.7614 39.1023 15.0634 39.1742 15.3267 39.3182C15.59 39.4621 15.7964 39.6562 15.946 39.9006C16.0956 40.1449 16.1705 40.4167 16.1705 40.7159C16.1705 40.9299 16.1316 41.1392 16.054 41.3438C15.9782 41.5464 15.8456 41.7727 15.6562 42.0227C15.4688 42.2708 15.2083 42.5739 14.875 42.9318L13.5682 44.3295V44.375H16.2727V45H12.6023Z" fill="#292D32"/>
<path d="M14.5682 60.0795C14.1932 60.0795 13.8589 60.0152 13.5653 59.8864C13.2737 59.7576 13.0417 59.5786 12.8693 59.3494C12.6989 59.1184 12.6061 58.8504 12.5909 58.5455H13.3068C13.322 58.733 13.3864 58.8949 13.5 59.0312C13.6136 59.1657 13.7623 59.2699 13.946 59.3438C14.1297 59.4176 14.3333 59.4545 14.5568 59.4545C14.8068 59.4545 15.0284 59.411 15.2216 59.3239C15.4148 59.2367 15.5663 59.1155 15.6761 58.9602C15.786 58.8049 15.8409 58.625 15.8409 58.4205C15.8409 58.2064 15.7879 58.018 15.6818 57.8551C15.5758 57.6903 15.4205 57.5616 15.2159 57.4688C15.0114 57.3759 14.7614 57.3295 14.4659 57.3295H14V56.7045H14.4659C14.697 56.7045 14.8996 56.6629 15.0739 56.5795C15.25 56.4962 15.3873 56.3788 15.4858 56.2273C15.5862 56.0758 15.6364 55.8977 15.6364 55.6932C15.6364 55.4962 15.5928 55.3248 15.5057 55.179C15.4186 55.0331 15.2955 54.9195 15.1364 54.8381C14.9792 54.7566 14.7936 54.7159 14.5795 54.7159C14.3788 54.7159 14.1894 54.7528 14.0114 54.8267C13.8352 54.8987 13.6913 55.0038 13.5795 55.142C13.4678 55.2784 13.4072 55.4432 13.3977 55.6364H12.7159C12.7273 55.3314 12.8191 55.0644 12.9915 54.8352C13.1638 54.6042 13.3892 54.4242 13.6676 54.2955C13.9479 54.1667 14.2557 54.1023 14.5909 54.1023C14.9508 54.1023 15.2595 54.1752 15.517 54.321C15.7746 54.465 15.9725 54.6553 16.1108 54.892C16.2491 55.1288 16.3182 55.3845 16.3182 55.6591C16.3182 55.9867 16.232 56.2661 16.0597 56.4972C15.8892 56.7282 15.6572 56.8883 15.3636 56.9773V57.0227C15.7311 57.0833 16.018 57.2396 16.2244 57.4915C16.4309 57.7415 16.5341 58.0511 16.5341 58.4205C16.5341 58.7367 16.4479 59.0208 16.2756 59.2727C16.1051 59.5227 15.8722 59.7197 15.5767 59.8636C15.2813 60.0076 14.9451 60.0795 14.5682 60.0795Z" fill="#292D32"/>
<path d="M86.936 46.0838L85.261 46.6638C84.7962 46.8238 84.438 47.1938 84.2831 47.6738L83.7215 49.4038C83.247 50.8938 81.2137 50.8638 80.7683 49.3738L78.8803 43.0938C78.5123 41.8438 79.6258 40.6938 80.8168 41.0738L86.907 43.0238C88.3497 43.4938 88.3691 45.5938 86.936 46.0838Z" fill="white" stroke="#292D32" stroke-width="1.5" stroke-linecap="round" stroke-linejoin="round"/>
</g>
<rect x="0.5" y="0.5" width="99" height="74" rx="2.5" stroke="#292D32"/>
<path d="M27.5229 84.4545C27.4718 84.0227 27.2644 83.6875 26.9007 83.4489C26.5371 83.2102 26.0911 83.0909 25.5627 83.0909C25.1763 83.0909 24.8382 83.1534 24.5485 83.2784C24.2615 83.4034 24.0371 83.5753 23.8752 83.794C23.7161 84.0128 23.6365 84.2614 23.6365 84.5398C23.6365 84.7727 23.6919 84.973 23.8027 85.1406C23.9164 85.3054 24.0613 85.4432 24.2374 85.554C24.4135 85.6619 24.5982 85.7514 24.7914 85.8224C24.9846 85.8906 25.1621 85.946 25.324 85.9886L26.2104 86.2273C26.4377 86.2869 26.6905 86.3693 26.9689 86.4744C27.2502 86.5795 27.5186 86.723 27.7743 86.9048C28.0328 87.0838 28.2459 87.3139 28.4135 87.5952C28.5811 87.8764 28.665 88.2216 28.665 88.6307C28.665 89.1023 28.5414 89.5284 28.2942 89.9091C28.0499 90.2898 27.6919 90.5923 27.2203 90.8168C26.7516 91.0412 26.182 91.1534 25.5115 91.1534C24.8865 91.1534 24.3453 91.0526 23.888 90.8509C23.4334 90.6491 23.0755 90.3679 22.8141 90.0071C22.5556 89.6463 22.4093 89.2273 22.3752 88.75H23.4661C23.4945 89.0795 23.6053 89.3523 23.7985 89.5682C23.9945 89.7812 24.2417 89.9403 24.54 90.0455C24.8411 90.1477 25.165 90.1989 25.5115 90.1989C25.915 90.1989 26.2772 90.1335 26.5982 90.0028C26.9192 89.8693 27.1735 89.6847 27.361 89.4489C27.5485 89.2102 27.6422 88.9318 27.6422 88.6136C27.6422 88.3239 27.5613 88.0881 27.3993 87.9062C27.2374 87.7244 27.0243 87.5767 26.7601 87.4631C26.4959 87.3494 26.2104 87.25 25.9036 87.1648L24.8297 86.858C24.1479 86.6619 23.6081 86.3821 23.2104 86.0185C22.8127 85.6548 22.6138 85.179 22.6138 84.5909C22.6138 84.1023 22.7459 83.6761 23.0101 83.3125C23.2772 82.946 23.6351 82.6619 24.084 82.4602C24.5357 82.2557 25.04 82.1534 25.5968 82.1534C26.1593 82.1534 26.6593 82.2543 27.0968 82.456C27.5343 82.6548 27.8809 82.9276 28.1365 83.2741C28.3951 83.6207 28.5314 84.0142 28.5456 84.4545H27.5229ZM33.0105 91.1364C32.3798 91.1364 31.8358 90.9972 31.3784 90.7188C30.9238 90.4375 30.573 90.0455 30.3258 89.5426C30.0815 89.0369 29.9593 88.4489 29.9593 87.7784C29.9593 87.108 30.0815 86.517 30.3258 86.0057C30.573 85.4915 30.9167 85.0909 31.3571 84.804C31.8002 84.5142 32.3173 84.3693 32.9082 84.3693C33.2491 84.3693 33.5858 84.4261 33.9181 84.5398C34.2505 84.6534 34.5531 84.8381 34.8258 85.0938C35.0985 85.3466 35.3159 85.6818 35.4778 86.0994C35.6397 86.517 35.7207 87.0312 35.7207 87.642V88.0682H30.6752V87.1989H34.698C34.698 86.8295 34.6241 86.5 34.4764 86.2102C34.3315 85.9205 34.1241 85.6918 33.8542 85.5241C33.5872 85.3565 33.2718 85.2727 32.9082 85.2727C32.5076 85.2727 32.161 85.3722 31.8684 85.571C31.5787 85.767 31.3556 86.0227 31.1994 86.3381C31.0431 86.6534 30.965 86.9915 30.965 87.3523V87.9318C30.965 88.4261 31.0502 88.8452 31.2207 89.1889C31.394 89.5298 31.6341 89.7898 31.9409 89.9688C32.2477 90.1449 32.6042 90.233 33.0105 90.233C33.2747 90.233 33.5133 90.196 33.7264 90.1222C33.9423 90.0455 34.1284 89.9318 34.2846 89.7812C34.4409 89.6278 34.5616 89.4375 34.6468 89.2102L35.6184 89.483C35.5162 89.8125 35.3443 90.1023 35.1028 90.3523C34.8613 90.5994 34.563 90.7926 34.2079 90.9318C33.8528 91.0682 33.4537 91.1364 33.0105 91.1364ZM41.7164 93.4545V89.9943H41.6312C41.5574 90.1136 41.4522 90.2642 41.3159 90.446C41.1795 90.625 40.9849 90.7855 40.7321 90.9276C40.4792 91.0668 40.1426 91.1364 39.7221 91.1364C39.1767 91.1364 38.6951 90.9986 38.2775 90.723C37.8599 90.4446 37.5332 90.0526 37.2974 89.5469C37.0616 89.0384 36.9437 88.4375 36.9437 87.7443C36.9437 87.0568 37.0616 86.4602 37.2974 85.9545C37.5332 85.4489 37.8613 85.0582 38.2818 84.7827C38.7022 84.5071 39.188 84.3693 39.7392 84.3693C40.1653 84.3693 40.502 84.4403 40.7491 84.5824C40.9991 84.7216 41.1895 84.8807 41.3201 85.0597C41.4537 85.2358 41.5574 85.3807 41.6312 85.4943H41.7505V84.4545H42.7221V93.4545H41.7164ZM39.8585 90.233C40.2619 90.233 40.6028 90.1278 40.8812 89.9176C41.1596 89.7045 41.3713 89.4105 41.5162 89.0355C41.661 88.6577 41.7335 88.2216 41.7335 87.7273C41.7335 87.2386 41.6625 86.8111 41.5204 86.4446C41.3784 86.0753 41.1681 85.7884 40.8897 85.5838C40.6113 85.3764 40.2676 85.2727 39.8585 85.2727C39.4324 85.2727 39.0772 85.3821 38.7931 85.6009C38.5119 85.8168 38.3002 86.1108 38.1582 86.483C38.019 86.8523 37.9494 87.267 37.9494 87.7273C37.9494 88.1932 38.0204 88.6165 38.1625 88.9972C38.3074 89.375 38.5204 89.6761 38.8017 89.9006C39.0858 90.1222 39.438 90.233 39.8585 90.233ZM48.688 88.3239V84.4545H49.6937V91H48.688V89.892H48.6199C48.4664 90.2244 48.2278 90.5071 47.9039 90.7401C47.5801 90.9702 47.171 91.0852 46.6767 91.0852C46.2676 91.0852 45.9039 90.9957 45.5858 90.8168C45.2676 90.6349 45.0176 90.3622 44.8358 89.9986C44.6539 89.6321 44.563 89.1705 44.563 88.6136V84.4545H45.5687V88.5455C45.5687 89.0227 45.7022 89.4034 45.9693 89.6875C46.2392 89.9716 46.5829 90.1136 47.0005 90.1136C47.2505 90.1136 47.5048 90.0497 47.7633 89.9219C48.0247 89.794 48.2434 89.598 48.4196 89.3338C48.5985 89.0696 48.688 88.733 48.688 88.3239ZM54.28 91.1364C53.6493 91.1364 53.1053 90.9972 52.6479 90.7188C52.1934 90.4375 51.8425 90.0455 51.5953 89.5426C51.351 89.0369 51.2289 88.4489 51.2289 87.7784C51.2289 87.108 51.351 86.517 51.5953 86.0057C51.8425 85.4915 52.1863 85.0909 52.6266 84.804C53.0698 84.5142 53.5868 84.3693 54.1777 84.3693C54.5186 84.3693 54.8553 84.4261 55.1877 84.5398C55.5201 84.6534 55.8226 84.8381 56.0953 85.0938C56.3681 85.3466 56.5854 85.6818 56.7473 86.0994C56.9093 86.517 56.9902 87.0312 56.9902 87.642V88.0682H51.9448V87.1989H55.9675C55.9675 86.8295 55.8936 86.5 55.7459 86.2102C55.601 85.9205 55.3936 85.6918 55.1238 85.5241C54.8567 85.3565 54.5414 85.2727 54.1777 85.2727C53.7772 85.2727 53.4306 85.3722 53.138 85.571C52.8482 85.767 52.6252 86.0227 52.4689 86.3381C52.3127 86.6534 52.2346 86.9915 52.2346 87.3523V87.9318C52.2346 88.4261 52.3198 88.8452 52.4902 89.1889C52.6635 89.5298 52.9036 89.7898 53.2104 89.9688C53.5172 90.1449 53.8738 90.233 54.28 90.233C54.5442 90.233 54.7828 90.196 54.9959 90.1222C55.2118 90.0455 55.3979 89.9318 55.5542 89.7812C55.7104 89.6278 55.8311 89.4375 55.9164 89.2102L56.888 89.483C56.7857 89.8125 56.6138 90.1023 56.3723 90.3523C56.1309 90.5994 55.8326 90.7926 55.4775 90.9318C55.1223 91.0682 54.7232 91.1364 54.28 91.1364ZM59.5257 87.0625V91H58.5201V84.4545H59.4917V85.4773H59.5769C59.7303 85.1449 59.9632 84.8778 60.2757 84.6761C60.5882 84.4716 60.9917 84.3693 61.486 84.3693C61.9292 84.3693 62.3169 84.4602 62.6493 84.642C62.9817 84.821 63.2402 85.0938 63.4249 85.4602C63.6096 85.8239 63.7019 86.2841 63.7019 86.8409V91H62.6962V86.9091C62.6962 86.3949 62.5627 85.9943 62.2956 85.7074C62.0286 85.4176 61.6621 85.2727 61.1962 85.2727C60.8752 85.2727 60.5882 85.3423 60.3354 85.4815C60.0854 85.6207 59.888 85.8239 59.7431 86.0909C59.5982 86.358 59.5257 86.6818 59.5257 87.0625ZM68.1987 91.1364C67.585 91.1364 67.0566 90.9915 66.6135 90.7017C66.1703 90.4119 65.8294 90.0128 65.5907 89.5043C65.3521 88.9957 65.2328 88.4148 65.2328 87.7614C65.2328 87.0966 65.3549 86.5099 65.5993 86.0014C65.8464 85.4901 66.1902 85.0909 66.6305 84.804C67.0737 84.5142 67.5907 84.3693 68.1816 84.3693C68.6419 84.3693 69.0566 84.4545 69.426 84.625C69.7953 84.7955 70.0978 85.0341 70.3336 85.3409C70.5694 85.6477 70.7157 86.0057 70.7726 86.4148H69.7669C69.6902 86.1165 69.5197 85.8523 69.2555 85.6222C68.9941 85.3892 68.6419 85.2727 68.1987 85.2727C67.8066 85.2727 67.4629 85.375 67.1674 85.5795C66.8748 85.7812 66.6461 86.0668 66.4814 86.4361C66.3194 86.8026 66.2385 87.233 66.2385 87.7273C66.2385 88.233 66.318 88.6733 66.4771 89.0483C66.639 89.4233 66.8663 89.7145 67.1589 89.9219C67.4544 90.1293 67.801 90.233 68.1987 90.233C68.46 90.233 68.6973 90.1875 68.9103 90.0966C69.1234 90.0057 69.3038 89.875 69.4515 89.7045C69.5993 89.5341 69.7044 89.3295 69.7669 89.0909H70.7726C70.7157 89.4773 70.5751 89.8253 70.3507 90.1349C70.1291 90.4418 69.835 90.6861 69.4686 90.8679C69.1049 91.0469 68.6816 91.1364 68.1987 91.1364ZM74.987 91.1364C74.3564 91.1364 73.8123 90.9972 73.3549 90.7188C72.9004 90.4375 72.5495 90.0455 72.3024 89.5426C72.0581 89.0369 71.9359 88.4489 71.9359 87.7784C71.9359 87.108 72.0581 86.517 72.3024 86.0057C72.5495 85.4915 72.8933 85.0909 73.3336 84.804C73.7768 84.5142 74.2939 84.3693 74.8848 84.3693C75.2257 84.3693 75.5623 84.4261 75.8947 84.5398C76.2271 84.6534 76.5297 84.8381 76.8024 85.0938C77.0751 85.3466 77.2924 85.6818 77.4544 86.0994C77.6163 86.517 77.6973 87.0312 77.6973 87.642V88.0682H72.6518V87.1989H76.6745C76.6745 86.8295 76.6007 86.5 76.4529 86.2102C76.3081 85.9205 76.1007 85.6918 75.8308 85.5241C75.5637 85.3565 75.2484 85.2727 74.8848 85.2727C74.4842 85.2727 74.1376 85.3722 73.845 85.571C73.5552 85.767 73.3322 86.0227 73.176 86.3381C73.0197 86.6534 72.9416 86.9915 72.9416 87.3523V87.9318C72.9416 88.4261 73.0268 88.8452 73.1973 89.1889C73.3706 89.5298 73.6106 89.7898 73.9174 89.9688C74.2243 90.1449 74.5808 90.233 74.987 90.233C75.2512 90.233 75.4899 90.196 75.7029 90.1222C75.9189 90.0455 76.1049 89.9318 76.2612 89.7812C76.4174 89.6278 76.5382 89.4375 76.6234 89.2102L77.595 89.483C77.4927 89.8125 77.3208 90.1023 77.0794 90.3523C76.8379 90.5994 76.5396 90.7926 76.1845 90.9318C75.8294 91.0682 75.4302 91.1364 74.987 91.1364Z" fill="#292D32"/>
<defs>
<clipPath id="clip0_74_5876">
<rect width="100" height="75" rx="3" fill="white"/>
</clipPath>
</defs>
</svg>
