<svg width="100" height="94" viewBox="0 0 100 94" fill="none" xmlns="http://www.w3.org/2000/svg">
<g clip-path="url(#clip0_74_5828)">
<rect width="100" height="75" rx="3" fill="white"/>
<rect x="0.5" y="0.5" width="99" height="8" fill="#223368"/>
<rect x="0.5" y="0.5" width="99" height="8" stroke="#292D32"/>
<line x1="12" y1="22.5" x2="88" y2="22.5" stroke="#292D32"/>
<line x1="12" y1="26.5" x2="88" y2="26.5" stroke="#292D32"/>
<line x1="12" y1="30.5" x2="36" y2="30.5" stroke="#292D32"/>
<rect x="12.5" y="45.5" width="75" height="23" rx="2.5" stroke="#292D32"/>
<path d="M18.2955 62.7045C17.7424 62.7045 17.2405 62.6004 16.7898 62.392C16.339 62.1799 15.9811 61.875 15.7159 61.4773C15.4508 61.0758 15.3182 60.5909 15.3182 60.0227C15.3182 59.5227 15.4167 59.1174 15.6136 58.8068C15.8106 58.4924 16.0739 58.2462 16.4034 58.0682C16.733 57.8902 17.0966 57.7576 17.4943 57.6705C17.8958 57.5795 18.2992 57.5076 18.7045 57.4545C19.2348 57.3864 19.6648 57.3352 19.9943 57.3011C20.3277 57.2633 20.5701 57.2008 20.7216 57.1136C20.8769 57.0265 20.9545 56.875 20.9545 56.6591V56.6136C20.9545 56.053 20.8011 55.6174 20.4943 55.3068C20.1913 54.9962 19.7311 54.8409 19.1136 54.8409C18.4735 54.8409 17.9716 54.9811 17.608 55.2614C17.2443 55.5417 16.9886 55.8409 16.8409 56.1591L15.5682 55.7045C15.7955 55.1742 16.0985 54.7614 16.4773 54.4659C16.8598 54.1667 17.2765 53.9583 17.7273 53.8409C18.1818 53.7197 18.6288 53.6591 19.0682 53.6591C19.3485 53.6591 19.6705 53.6932 20.0341 53.7614C20.4015 53.8258 20.7557 53.9602 21.0966 54.1648C21.4413 54.3693 21.7273 54.678 21.9545 55.0909C22.1818 55.5038 22.2955 56.0568 22.2955 56.75V62.5H20.9545V61.3182H20.8864C20.7955 61.5076 20.6439 61.7102 20.4318 61.9261C20.2197 62.142 19.9375 62.3258 19.5852 62.4773C19.233 62.6288 18.803 62.7045 18.2955 62.7045ZM18.5 61.5C19.0303 61.5 19.4773 61.3958 19.8409 61.1875C20.2083 60.9792 20.4848 60.7102 20.6705 60.3807C20.8598 60.0511 20.9545 59.7045 20.9545 59.3409V58.1136C20.8977 58.1818 20.7727 58.2443 20.5795 58.3011C20.3902 58.3542 20.1705 58.4015 19.9205 58.4432C19.6742 58.4811 19.4337 58.5152 19.1989 58.5455C18.9678 58.572 18.7803 58.5947 18.6364 58.6136C18.2879 58.6591 17.9621 58.733 17.6591 58.8352C17.3598 58.9337 17.1174 59.0833 16.9318 59.2841C16.75 59.4811 16.6591 59.75 16.6591 60.0909C16.6591 60.5568 16.8314 60.9091 17.1761 61.1477C17.5246 61.3826 17.9659 61.5 18.5 61.5ZM24.9247 62.5V50.8636H26.2656V55.1591H26.3793C26.4777 55.0076 26.6141 54.8144 26.7884 54.5795C26.9664 54.3409 27.2202 54.1288 27.5497 53.9432C27.883 53.7538 28.3338 53.6591 28.902 53.6591C29.6368 53.6591 30.2846 53.8428 30.8452 54.2102C31.4058 54.5777 31.8433 55.0985 32.1577 55.7727C32.4721 56.447 32.6293 57.2424 32.6293 58.1591C32.6293 59.0833 32.4721 59.8845 32.1577 60.5625C31.8433 61.2367 31.4077 61.7595 30.8509 62.1307C30.294 62.4981 29.652 62.6818 28.9247 62.6818C28.3641 62.6818 27.9152 62.589 27.5781 62.4034C27.241 62.214 26.9815 62 26.7997 61.7614C26.6179 61.5189 26.4777 61.3182 26.3793 61.1591H26.2202V62.5H24.9247ZM26.2429 58.1364C26.2429 58.7955 26.3395 59.3769 26.5327 59.8807C26.7259 60.3807 27.008 60.7727 27.3793 61.0568C27.7505 61.3371 28.205 61.4773 28.7429 61.4773C29.3035 61.4773 29.7713 61.3295 30.1463 61.0341C30.5251 60.7348 30.8092 60.3333 30.9986 59.8295C31.1918 59.322 31.2884 58.7576 31.2884 58.1364C31.2884 57.5227 31.1937 56.9697 31.0043 56.4773C30.8187 55.9811 30.5365 55.589 30.1577 55.3011C29.7827 55.0095 29.3111 54.8636 28.7429 54.8636C28.1974 54.8636 27.7391 55.0019 27.3679 55.2784C26.9967 55.5511 26.7164 55.9337 26.527 56.4261C26.3376 56.9148 26.2429 57.4848 26.2429 58.1364ZM38.2259 62.6818C37.4077 62.6818 36.7031 62.4886 36.1122 62.1023C35.5213 61.7159 35.0668 61.1837 34.7486 60.5057C34.4304 59.8277 34.2713 59.053 34.2713 58.1818C34.2713 57.2955 34.4342 56.5133 34.7599 55.8352C35.0895 55.1534 35.5478 54.6212 36.1349 54.2386C36.7259 53.8523 37.4152 53.6591 38.2031 53.6591C38.8168 53.6591 39.3698 53.7727 39.8622 54C40.3546 54.2273 40.758 54.5455 41.0724 54.9545C41.3868 55.3636 41.5819 55.8409 41.6577 56.3864H40.3168C40.2145 55.9886 39.9872 55.6364 39.6349 55.3295C39.2865 55.0189 38.8168 54.8636 38.2259 54.8636C37.7031 54.8636 37.2448 55 36.8509 55.2727C36.4607 55.5417 36.1558 55.9223 35.9361 56.4148C35.7202 56.9034 35.6122 57.4773 35.6122 58.1364C35.6122 58.8106 35.7183 59.3977 35.9304 59.8977C36.1463 60.3977 36.4493 60.786 36.8395 61.0625C37.2334 61.339 37.6955 61.4773 38.2259 61.4773C38.5743 61.4773 38.8906 61.4167 39.1747 61.2955C39.4588 61.1742 39.6993 61 39.8963 60.7727C40.0933 60.5455 40.2334 60.2727 40.3168 59.9545H41.6577C41.5819 60.4697 41.3944 60.9337 41.0952 61.3466C40.7997 61.7557 40.4077 62.0814 39.919 62.3239C39.4342 62.5625 38.8698 62.6818 38.2259 62.6818Z" fill="#292D32"/>
</g>
<rect x="0.5" y="0.5" width="99" height="74" rx="2.5" stroke="#292D32"/>
<path d="M17.3862 84.4545C17.335 84.0227 17.1277 83.6875 16.764 83.4489C16.4004 83.2102 15.9544 83.0909 15.426 83.0909C15.0396 83.0909 14.7015 83.1534 14.4118 83.2784C14.1248 83.4034 13.9004 83.5753 13.7385 83.794C13.5794 84.0128 13.4998 84.2614 13.4998 84.5398C13.4998 84.7727 13.5552 84.973 13.666 85.1406C13.7797 85.3054 13.9245 85.4432 14.1007 85.554C14.2768 85.6619 14.4615 85.7514 14.6547 85.8224C14.8478 85.8906 15.0254 85.946 15.1873 85.9886L16.0737 86.2273C16.301 86.2869 16.5538 86.3693 16.8322 86.4744C17.1135 86.5795 17.3819 86.723 17.6376 86.9048C17.8961 87.0838 18.1092 87.3139 18.2768 87.5952C18.4444 87.8764 18.5282 88.2216 18.5282 88.6307C18.5282 89.1023 18.4047 89.5284 18.1575 89.9091C17.9132 90.2898 17.5552 90.5923 17.0836 90.8168C16.6149 91.0412 16.0453 91.1534 15.3748 91.1534C14.7498 91.1534 14.2086 91.0526 13.7512 90.8509C13.2967 90.6491 12.9387 90.3679 12.6774 90.0071C12.4189 89.6463 12.2725 89.2273 12.2385 88.75H13.3294C13.3578 89.0795 13.4686 89.3523 13.6618 89.5682C13.8578 89.7812 14.1049 89.9403 14.4032 90.0455C14.7044 90.1477 15.0282 90.1989 15.3748 90.1989C15.7782 90.1989 16.1404 90.1335 16.4615 90.0028C16.7825 89.8693 17.0368 89.6847 17.2243 89.4489C17.4118 89.2102 17.5055 88.9318 17.5055 88.6136C17.5055 88.3239 17.4245 88.0881 17.2626 87.9062C17.1007 87.7244 16.8876 87.5767 16.6234 87.4631C16.3592 87.3494 16.0737 87.25 15.7669 87.1648L14.693 86.858C14.0112 86.6619 13.4714 86.3821 13.0737 86.0185C12.676 85.6548 12.4771 85.179 12.4771 84.5909C12.4771 84.1023 12.6092 83.6761 12.8734 83.3125C13.1404 82.946 13.4984 82.6619 13.9473 82.4602C14.399 82.2557 14.9032 82.1534 15.46 82.1534C16.0225 82.1534 16.5225 82.2543 16.96 82.456C17.3975 82.6548 17.7441 82.9276 17.9998 83.2741C18.2583 83.6207 18.3947 84.0142 18.4089 84.4545H17.3862ZM21.1351 87.0625V91H20.1294V82.2727H21.1351V85.4773H21.2203C21.3738 85.1392 21.6039 84.8707 21.9107 84.6719C22.2203 84.4702 22.6323 84.3693 23.1465 84.3693C23.5925 84.3693 23.9831 84.4588 24.3184 84.6378C24.6536 84.8139 24.9135 85.0852 25.0982 85.4517C25.2857 85.8153 25.3794 86.2784 25.3794 86.8409V91H24.3738V86.9091C24.3738 86.3892 24.2388 85.9872 23.9689 85.7031C23.7019 85.4162 23.3311 85.2727 22.8567 85.2727C22.5272 85.2727 22.2317 85.3423 21.9703 85.4815C21.7118 85.6207 21.5073 85.8239 21.3567 86.0909C21.209 86.358 21.1351 86.6818 21.1351 87.0625ZM29.8784 91.1364C29.2875 91.1364 28.769 90.9957 28.323 90.7145C27.8798 90.4332 27.5332 90.0398 27.2832 89.5341C27.036 89.0284 26.9125 88.4375 26.9125 87.7614C26.9125 87.0795 27.036 86.4844 27.2832 85.9759C27.5332 85.4673 27.8798 85.0724 28.323 84.7912C28.769 84.5099 29.2875 84.3693 29.8784 84.3693C30.4693 84.3693 30.9863 84.5099 31.4295 84.7912C31.8755 85.0724 32.2221 85.4673 32.4693 85.9759C32.7193 86.4844 32.8443 87.0795 32.8443 87.7614C32.8443 88.4375 32.7193 89.0284 32.4693 89.5341C32.2221 90.0398 31.8755 90.4332 31.4295 90.7145C30.9863 90.9957 30.4693 91.1364 29.8784 91.1364ZM29.8784 90.233C30.3272 90.233 30.6966 90.1179 30.9863 89.8878C31.2761 89.6577 31.4906 89.3551 31.6298 88.9801C31.769 88.6051 31.8386 88.1989 31.8386 87.7614C31.8386 87.3239 31.769 86.9162 31.6298 86.5384C31.4906 86.1605 31.2761 85.8551 30.9863 85.6222C30.6966 85.3892 30.3272 85.2727 29.8784 85.2727C29.4295 85.2727 29.0602 85.3892 28.7704 85.6222C28.4806 85.8551 28.2662 86.1605 28.127 86.5384C27.9877 86.9162 27.9181 87.3239 27.9181 87.7614C27.9181 88.1989 27.9877 88.6051 28.127 88.9801C28.2662 89.3551 28.4806 89.6577 28.7704 89.8878C29.0602 90.1179 29.4295 90.233 29.8784 90.233ZM34.3794 91V84.4545H35.351V85.4432H35.4192C35.5385 85.1193 35.7544 84.8565 36.0669 84.6548C36.3794 84.4531 36.7317 84.3523 37.1238 84.3523C37.1976 84.3523 37.29 84.3537 37.4007 84.3565C37.5115 84.3594 37.5953 84.3636 37.6522 84.3693V85.392C37.6181 85.3835 37.54 85.3707 37.4178 85.3537C37.2985 85.3338 37.1721 85.3239 37.0385 85.3239C36.7203 85.3239 36.4363 85.3906 36.1863 85.5241C35.9391 85.6548 35.7431 85.8366 35.5982 86.0696C35.4561 86.2997 35.3851 86.5625 35.3851 86.858V91H34.3794ZM42.101 84.4545V85.3068H38.709V84.4545H42.101ZM39.6976 82.8864H40.7033V89.125C40.7033 89.4091 40.7445 89.6222 40.8269 89.7642C40.9121 89.9034 41.0201 89.9972 41.1507 90.0455C41.2843 90.0909 41.4249 90.1136 41.5726 90.1136C41.6834 90.1136 41.7743 90.108 41.8453 90.0966C41.9164 90.0824 41.9732 90.071 42.0158 90.0625L42.2203 90.9659C42.1522 90.9915 42.057 91.017 41.9348 91.0426C41.8127 91.071 41.6578 91.0852 41.4703 91.0852C41.1863 91.0852 40.9078 91.0241 40.6351 90.902C40.3652 90.7798 40.1408 90.5938 39.9618 90.3438C39.7857 90.0938 39.6976 89.7784 39.6976 89.3977V82.8864ZM47.4831 91H46.3752L49.5797 82.2727H50.6706L53.8752 91H52.7672L50.1593 83.6534H50.0911L47.4831 91ZM47.8922 87.5909H52.3581V88.5284H47.8922V87.5909ZM56.1039 87.0625V91H55.0982V84.4545H56.0698V85.4773H56.155C56.3084 85.1449 56.5414 84.8778 56.8539 84.6761C57.1664 84.4716 57.5698 84.3693 58.0641 84.3693C58.5073 84.3693 58.8951 84.4602 59.2275 84.642C59.5598 84.821 59.8184 85.0938 60.003 85.4602C60.1877 85.8239 60.28 86.2841 60.28 86.8409V91H59.2743V86.9091C59.2743 86.3949 59.1408 85.9943 58.8738 85.7074C58.6067 85.4176 58.2402 85.2727 57.7743 85.2727C57.4533 85.2727 57.1664 85.3423 56.9135 85.4815C56.6635 85.6207 56.4661 85.8239 56.3212 86.0909C56.1763 86.358 56.1039 86.6818 56.1039 87.0625ZM66.7541 85.9205L65.8507 86.1761C65.7939 86.0256 65.71 85.8793 65.5993 85.7372C65.4913 85.5923 65.3436 85.473 65.1561 85.3793C64.9686 85.2855 64.7285 85.2386 64.4359 85.2386C64.0353 85.2386 63.7015 85.331 63.4345 85.5156C63.1703 85.6974 63.0382 85.929 63.0382 86.2102C63.0382 86.4602 63.1291 86.6577 63.3109 86.8026C63.4927 86.9474 63.7768 87.0682 64.1632 87.1648L65.1348 87.4034C65.72 87.5455 66.1561 87.7628 66.443 88.0554C66.7299 88.3452 66.8734 88.7187 66.8734 89.1761C66.8734 89.5511 66.7654 89.8864 66.5495 90.1818C66.3365 90.4773 66.0382 90.7102 65.6547 90.8807C65.2711 91.0511 64.8251 91.1364 64.3166 91.1364C63.649 91.1364 63.0964 90.9915 62.6589 90.7017C62.2214 90.4119 61.9444 89.9886 61.8279 89.4318L62.7825 89.1932C62.8734 89.5455 63.0453 89.8097 63.2981 89.9858C63.5538 90.1619 63.8876 90.25 64.2995 90.25C64.7683 90.25 65.1404 90.1506 65.416 89.9517C65.6944 89.75 65.8336 89.5085 65.8336 89.2273C65.8336 89 65.7541 88.8097 65.595 88.6562C65.4359 88.5 65.1916 88.3835 64.862 88.3068L63.7711 88.0511C63.1717 87.9091 62.7314 87.6889 62.4501 87.3906C62.1717 87.0895 62.0325 86.7131 62.0325 86.2614C62.0325 85.892 62.1362 85.5653 62.3436 85.2812C62.5538 84.9972 62.8393 84.7741 63.2001 84.6122C63.5637 84.4503 63.9757 84.3693 64.4359 84.3693C65.0836 84.3693 65.5922 84.5114 65.9615 84.7955C66.3336 85.0795 66.5978 85.4545 66.7541 85.9205ZM69.8702 91L67.8759 84.4545H68.9327L70.3475 89.4659H70.4157L71.8134 84.4545H72.8873L74.2679 89.4489H74.3361L75.7509 84.4545H76.8077L74.8134 91H73.8248L72.3929 85.9716H72.2907L70.8588 91H69.8702ZM80.6589 91.1364C80.0282 91.1364 79.4842 90.9972 79.0268 90.7188C78.5723 90.4375 78.2214 90.0455 77.9743 89.5426C77.7299 89.0369 77.6078 88.4489 77.6078 87.7784C77.6078 87.108 77.7299 86.517 77.9743 86.0057C78.2214 85.4915 78.5652 85.0909 79.0055 84.804C79.4487 84.5142 79.9657 84.3693 80.5566 84.3693C80.8975 84.3693 81.2342 84.4261 81.5666 84.5398C81.899 84.6534 82.2015 84.8381 82.4743 85.0938C82.747 85.3466 82.9643 85.6818 83.1262 86.0994C83.2882 86.517 83.3691 87.0312 83.3691 87.642V88.0682H78.3237V87.1989H82.3464C82.3464 86.8295 82.2725 86.5 82.1248 86.2102C81.9799 85.9205 81.7725 85.6918 81.5027 85.5241C81.2356 85.3565 80.9203 85.2727 80.5566 85.2727C80.1561 85.2727 79.8095 85.3722 79.5169 85.571C79.2271 85.767 79.0041 86.0227 78.8478 86.3381C78.6916 86.6534 78.6135 86.9915 78.6135 87.3523V87.9318C78.6135 88.4261 78.6987 88.8452 78.8691 89.1889C79.0424 89.5298 79.2825 89.7898 79.5893 89.9688C79.8961 90.1449 80.2527 90.233 80.6589 90.233C80.9231 90.233 81.1618 90.196 81.3748 90.1222C81.5907 90.0455 81.7768 89.9318 81.9331 89.7812C82.0893 89.6278 82.21 89.4375 82.2953 89.2102L83.2669 89.483C83.1646 89.8125 82.9927 90.1023 82.7512 90.3523C82.5098 90.5994 82.2115 90.7926 81.8564 90.9318C81.5012 91.0682 81.1021 91.1364 80.6589 91.1364ZM84.899 91V84.4545H85.8706V85.4432H85.9387C86.0581 85.1193 86.274 84.8565 86.5865 84.6548C86.899 84.4531 87.2512 84.3523 87.6433 84.3523C87.7172 84.3523 87.8095 84.3537 87.9203 84.3565C88.0311 84.3594 88.1149 84.3636 88.1717 84.3693V85.392C88.1376 85.3835 88.0595 85.3707 87.9373 85.3537C87.818 85.3338 87.6916 85.3239 87.5581 85.3239C87.2399 85.3239 86.9558 85.3906 86.7058 85.5241C86.4586 85.6548 86.2626 85.8366 86.1177 86.0696C85.9757 86.2997 85.9047 86.5625 85.9047 86.858V91H84.899Z" fill="#292D32"/>
<defs>
<clipPath id="clip0_74_5828">
<rect width="100" height="75" rx="3" fill="white"/>
</clipPath>
</defs>
</svg>
