<svg width="100" height="94" viewBox="0 0 100 94" fill="none" xmlns="http://www.w3.org/2000/svg">
<g clip-path="url(#clip0_74_5812)">
<rect width="100" height="75" rx="3" fill="white"/>
<rect x="0.5" y="0.5" width="99" height="8" fill="#223368"/>
<rect x="0.5" y="0.5" width="99" height="8" stroke="#292D32"/>
<path d="M21 37H27C32 37 34 35 34 30V24C34 19 32 17 27 17H21C16 17 14 19 14 24V30C14 35 16 37 21 37Z" fill="#223368" stroke="#292D32" stroke-width="1.5" stroke-linecap="round" stroke-linejoin="round"/>
<path d="M19.75 26.9999L22.58 29.8299L28.25 24.1699" stroke="white" stroke-width="1.5" stroke-linecap="round" stroke-linejoin="round"/>
<line x1="40" y1="24.5" x2="84" y2="24.5" stroke="#292D32"/>
<line x1="40" y1="28.5" x2="88" y2="28.5" stroke="#292D32"/>
<path d="M21.17 59.8299L26.83 54.1699" stroke="#292D32" stroke-width="1.5" stroke-linecap="round" stroke-linejoin="round"/>
<path d="M26.83 59.8299L21.17 54.1699" stroke="#292D32" stroke-width="1.5" stroke-linecap="round" stroke-linejoin="round"/>
<path d="M21 67H27C32 67 34 65 34 60V54C34 49 32 47 27 47H21C16 47 14 49 14 54V60C14 65 16 67 21 67Z" stroke="#292D32" stroke-width="1.5" stroke-linecap="round" stroke-linejoin="round"/>
<line x1="40" y1="52.5" x2="54" y2="52.5" stroke="#292D32"/>
<line x1="40" y1="56.5" x2="88" y2="56.5" stroke="#292D32"/>
<line x1="40" y1="60.5" x2="64" y2="60.5" stroke="#292D32"/>
</g>
<rect x="0.5" y="0.5" width="99" height="74" rx="2.5" stroke="#292D32"/>
<path d="M13.7182 83.2102V82.2727H20.2637V83.2102H17.5194V91H16.4625V83.2102H13.7182ZM21.0787 91V84.4545H22.0502V85.4432H22.1184C22.2377 85.1193 22.4537 84.8565 22.7662 84.6548C23.0787 84.4531 23.4309 84.3523 23.823 84.3523C23.8968 84.3523 23.9892 84.3537 24.1 84.3565C24.2108 84.3594 24.2946 84.3636 24.3514 84.3693V85.392C24.3173 85.3835 24.2392 85.3707 24.117 85.3537C23.9977 85.3338 23.8713 85.3239 23.7377 85.3239C23.4196 85.3239 23.1355 85.3906 22.8855 85.5241C22.6383 85.6548 22.4423 85.8366 22.2974 86.0696C22.1554 86.2997 22.0843 86.5625 22.0843 86.858V91H21.0787ZM29.6685 88.3239V84.4545H30.6742V91H29.6685V89.892H29.6003C29.4469 90.2244 29.2083 90.5071 28.8844 90.7401C28.5605 90.9702 28.1515 91.0852 27.6571 91.0852C27.248 91.0852 26.8844 90.9957 26.5662 90.8168C26.248 90.6349 25.998 90.3622 25.8162 89.9986C25.6344 89.6321 25.5435 89.1705 25.5435 88.6136V84.4545H26.5492V88.5455C26.5492 89.0227 26.6827 89.4034 26.9498 89.6875C27.2196 89.9716 27.5634 90.1136 27.981 90.1136C28.231 90.1136 28.4853 90.0497 28.7438 89.9219C29.0051 89.794 29.2239 89.598 29.4 89.3338C29.579 89.0696 29.6685 88.733 29.6685 88.3239ZM35.2605 91.1364C34.6298 91.1364 34.0858 90.9972 33.6284 90.7188C33.1738 90.4375 32.823 90.0455 32.5758 89.5426C32.3315 89.0369 32.2093 88.4489 32.2093 87.7784C32.2093 87.108 32.3315 86.517 32.5758 86.0057C32.823 85.4915 33.1667 85.0909 33.6071 84.804C34.0502 84.5142 34.5673 84.3693 35.1582 84.3693C35.4991 84.3693 35.8358 84.4261 36.1681 84.5398C36.5005 84.6534 36.8031 84.8381 37.0758 85.0938C37.3485 85.3466 37.5659 85.6818 37.7278 86.0994C37.8897 86.517 37.9707 87.0312 37.9707 87.642V88.0682H32.9252V87.1989H36.948C36.948 86.8295 36.8741 86.5 36.7264 86.2102C36.5815 85.9205 36.3741 85.6918 36.1042 85.5241C35.8372 85.3565 35.5218 85.2727 35.1582 85.2727C34.7576 85.2727 34.411 85.3722 34.1184 85.571C33.8287 85.767 33.6056 86.0227 33.4494 86.3381C33.2931 86.6534 33.215 86.9915 33.215 87.3523V87.9318C33.215 88.4261 33.3002 88.8452 33.4707 89.1889C33.644 89.5298 33.8841 89.7898 34.1909 89.9688C34.4977 90.1449 34.8542 90.233 35.2605 90.233C35.5247 90.233 35.7633 90.196 35.9764 90.1222C36.1923 90.0455 36.3784 89.9318 36.5346 89.7812C36.6909 89.6278 36.8116 89.4375 36.8968 89.2102L37.8684 89.483C37.7662 89.8125 37.5943 90.1023 37.3528 90.3523C37.1113 90.5994 36.813 90.7926 36.4579 90.9318C36.1028 91.0682 35.7037 91.1364 35.2605 91.1364ZM45.5346 91.1364C44.9437 91.1364 44.4252 90.9957 43.9792 90.7145C43.536 90.4332 43.1895 90.0398 42.9395 89.5341C42.6923 89.0284 42.5687 88.4375 42.5687 87.7614C42.5687 87.0795 42.6923 86.4844 42.9395 85.9759C43.1895 85.4673 43.536 85.0724 43.9792 84.7912C44.4252 84.5099 44.9437 84.3693 45.5346 84.3693C46.1255 84.3693 46.6426 84.5099 47.0858 84.7912C47.5318 85.0724 47.8784 85.4673 48.1255 85.9759C48.3755 86.4844 48.5005 87.0795 48.5005 87.7614C48.5005 88.4375 48.3755 89.0284 48.1255 89.5341C47.8784 90.0398 47.5318 90.4332 47.0858 90.7145C46.6426 90.9957 46.1255 91.1364 45.5346 91.1364ZM45.5346 90.233C45.9835 90.233 46.3528 90.1179 46.6426 89.8878C46.9324 89.6577 47.1468 89.3551 47.286 88.9801C47.4252 88.6051 47.4949 88.1989 47.4949 87.7614C47.4949 87.3239 47.4252 86.9162 47.286 86.5384C47.1468 86.1605 46.9324 85.8551 46.6426 85.6222C46.3528 85.3892 45.9835 85.2727 45.5346 85.2727C45.0858 85.2727 44.7164 85.3892 44.4267 85.6222C44.1369 85.8551 43.9224 86.1605 43.7832 86.5384C43.644 86.9162 43.5744 87.3239 43.5744 87.7614C43.5744 88.1989 43.644 88.6051 43.7832 88.9801C43.9224 89.3551 44.1369 89.6577 44.4267 89.8878C44.7164 90.1179 45.0858 90.233 45.5346 90.233ZM50.0357 91V84.4545H51.0073V85.4432H51.0755C51.1948 85.1193 51.4107 84.8565 51.7232 84.6548C52.0357 84.4531 52.388 84.3523 52.78 84.3523C52.8539 84.3523 52.9462 84.3537 53.057 84.3565C53.1678 84.3594 53.2516 84.3636 53.3084 84.3693V85.392C53.2743 85.3835 53.1962 85.3707 53.074 85.3537C52.9547 85.3338 52.8283 85.3239 52.6948 85.3239C52.3766 85.3239 52.0925 85.3906 51.8425 85.5241C51.5953 85.6548 51.3993 85.8366 51.2544 86.0696C51.1124 86.2997 51.0414 86.5625 51.0414 86.858V91H50.0357ZM58.0119 91V82.2727H63.2449V83.2102H59.0687V86.1591H62.8528V87.0966H59.0687V91H58.0119ZM66.8446 91.1534C66.4299 91.1534 66.0534 91.0753 65.7154 90.919C65.3773 90.7599 65.1088 90.5312 64.91 90.233C64.7111 89.9318 64.6117 89.5682 64.6117 89.142C64.6117 88.767 64.6855 88.4631 64.8333 88.2301C64.981 87.9943 65.1784 87.8097 65.4256 87.6761C65.6728 87.5426 65.9455 87.4432 66.2438 87.3778C66.5449 87.3097 66.8475 87.2557 67.1515 87.2159C67.5492 87.1648 67.8716 87.1264 68.1188 87.1009C68.3688 87.0724 68.5506 87.0256 68.6642 86.9602C68.7807 86.8949 68.839 86.7812 68.839 86.6193V86.5852C68.839 86.1648 68.7239 85.8381 68.4938 85.6051C68.2665 85.3722 67.9213 85.2557 67.4583 85.2557C66.9782 85.2557 66.6017 85.3608 66.329 85.571C66.0563 85.7812 65.8645 86.0057 65.7537 86.2443L64.7992 85.9034C64.9696 85.5057 65.1969 85.196 65.481 84.9744C65.7679 84.75 66.0804 84.5937 66.4185 84.5057C66.7594 84.4148 67.0946 84.3693 67.4242 84.3693C67.6344 84.3693 67.8759 84.3949 68.1486 84.446C68.4242 84.4943 68.6898 84.5952 68.9455 84.7486C69.204 84.902 69.4185 85.1335 69.589 85.4432C69.7594 85.7528 69.8446 86.1676 69.8446 86.6875V91H68.839V90.1136H68.7878C68.7196 90.2557 68.606 90.4077 68.4469 90.5696C68.2878 90.7315 68.0762 90.8693 67.812 90.983C67.5478 91.0966 67.2253 91.1534 66.8446 91.1534ZM66.998 90.25C67.3958 90.25 67.731 90.1719 68.0037 90.0156C68.2793 89.8594 68.4867 89.6577 68.6259 89.4105C68.7679 89.1634 68.839 88.9034 68.839 88.6307V87.7102C68.7963 87.7614 68.7026 87.8082 68.5577 87.8509C68.4157 87.8906 68.2509 87.9261 68.0634 87.9574C67.8787 87.9858 67.6983 88.0114 67.5222 88.0341C67.3489 88.054 67.2083 88.071 67.1003 88.0852C66.839 88.1193 66.5946 88.1747 66.3674 88.2514C66.1429 88.3253 65.9611 88.4375 65.8219 88.5881C65.6855 88.7358 65.6174 88.9375 65.6174 89.1932C65.6174 89.5426 65.7466 89.8068 66.0051 89.9858C66.2665 90.1619 66.5975 90.25 66.998 90.25ZM72.6859 82.2727V91H71.6802V82.2727H72.6859ZM79.1642 85.9205L78.2608 86.1761C78.204 86.0256 78.1202 85.8793 78.0094 85.7372C77.9015 85.5923 77.7537 85.473 77.5662 85.3793C77.3787 85.2855 77.1387 85.2386 76.8461 85.2386C76.4455 85.2386 76.1117 85.331 75.8446 85.5156C75.5804 85.6974 75.4483 85.929 75.4483 86.2102C75.4483 86.4602 75.5392 86.6577 75.7211 86.8026C75.9029 86.9474 76.187 87.0682 76.5733 87.1648L77.5449 87.4034C78.1301 87.5455 78.5662 87.7628 78.8532 88.0554C79.1401 88.3452 79.2836 88.7187 79.2836 89.1761C79.2836 89.5511 79.1756 89.8864 78.9597 90.1818C78.7466 90.4773 78.4483 90.7102 78.0648 90.8807C77.6813 91.0511 77.2353 91.1364 76.7267 91.1364C76.0591 91.1364 75.5066 90.9915 75.0691 90.7017C74.6316 90.4119 74.3546 89.9886 74.2381 89.4318L75.1926 89.1932C75.2836 89.5455 75.4554 89.8097 75.7083 89.9858C75.964 90.1619 76.2978 90.25 76.7097 90.25C77.1784 90.25 77.5506 90.1506 77.8262 89.9517C78.1046 89.75 78.2438 89.5085 78.2438 89.2273C78.2438 89 78.1642 88.8097 78.0051 88.6562C77.8461 88.5 77.6017 88.3835 77.2722 88.3068L76.1813 88.0511C75.5819 87.9091 75.1415 87.6889 74.8603 87.3906C74.5819 87.0895 74.4426 86.7131 74.4426 86.2614C74.4426 85.892 74.5463 85.5653 74.7537 85.2812C74.964 84.9972 75.2495 84.7741 75.6103 84.6122C75.9739 84.4503 76.3858 84.3693 76.8461 84.3693C77.4938 84.3693 78.0023 84.5114 78.3716 84.7955C78.7438 85.0795 79.008 85.4545 79.1642 85.9205ZM83.5417 91.1364C82.911 91.1364 82.367 90.9972 81.9096 90.7188C81.4551 90.4375 81.1042 90.0455 80.8571 89.5426C80.6127 89.0369 80.4906 88.4489 80.4906 87.7784C80.4906 87.108 80.6127 86.517 80.8571 86.0057C81.1042 85.4915 81.448 85.0909 81.8883 84.804C82.3315 84.5142 82.8485 84.3693 83.4395 84.3693C83.7804 84.3693 84.117 84.4261 84.4494 84.5398C84.7818 84.6534 85.0843 84.8381 85.3571 85.0938C85.6298 85.3466 85.8471 85.6818 86.0091 86.0994C86.171 86.517 86.252 87.0312 86.252 87.642V88.0682H81.2065V87.1989H85.2292C85.2292 86.8295 85.1554 86.5 85.0076 86.2102C84.8627 85.9205 84.6554 85.6918 84.3855 85.5241C84.1184 85.3565 83.8031 85.2727 83.4395 85.2727C83.0389 85.2727 82.6923 85.3722 82.3997 85.571C82.1099 85.767 81.8869 86.0227 81.7306 86.3381C81.5744 86.6534 81.4963 86.9915 81.4963 87.3523V87.9318C81.4963 88.4261 81.5815 88.8452 81.752 89.1889C81.9252 89.5298 82.1653 89.7898 82.4721 89.9688C82.7789 90.1449 83.1355 90.233 83.5417 90.233C83.8059 90.233 84.0446 90.196 84.2576 90.1222C84.4735 90.0455 84.6596 89.9318 84.8159 89.7812C84.9721 89.6278 85.0929 89.4375 85.1781 89.2102L86.1497 89.483C86.0474 89.8125 85.8755 90.1023 85.6341 90.3523C85.3926 90.5994 85.0943 90.7926 84.7392 90.9318C84.3841 91.0682 83.9849 91.1364 83.5417 91.1364Z" fill="#292D32"/>
<defs>
<clipPath id="clip0_74_5812">
<rect width="100" height="75" rx="3" fill="white"/>
</clipPath>
</defs>
</svg>
